<?xml version="1.0" encoding="utf-8"?>
<!-- Generator: Adobe Illustrator 24.1.3, SVG Export Plug-In . SVG Version: 6.00 Build 0)  -->
<svg version="1.1" id="Layer_1" xmlns="http://www.w3.org/2000/svg" xmlns:xlink="http://www.w3.org/1999/xlink" x="0px" y="0px"
	 viewBox="0 0 99.3 22.5" style="enable-background:new 0 0 99.3 22.5;" xml:space="preserve">
<g id="Title_Screen">
	<g id="Elements">
		<path d="M97.1,2.4c0.6,0,1,0.4,1,1.2s-0.3,1.2-1,1.2s-1-0.4-1-1.2S96.5,2.4,97.1,2.4 M97.1,1.4c-1.1,0-2.1,0.9-2.1,2
			c0,0.1,0,0.1,0,0.2c0,1.2,1,2.2,2.2,2.2c1.2,0,2.2-1,2.2-2.2c0.1-1.1-0.8-2.1-1.9-2.2C97.3,1.4,97.2,1.4,97.1,1.4 M94.4,1.6h-0.7
			V0.3h-1.2v1.3h-0.6v0.8h0.6v1.9c0,0.6,0,0.8,0.2,1s0.4,0.3,1,0.3h0.7V4.7H94c-0.3,0-0.3,0-0.3-0.7V2.4h0.7L94.4,1.6z M91.2,2.8
			c-0.1-0.9-0.7-1.3-1.8-1.3s-1.7,0.5-1.7,1.3c0,0.6,0.3,1,1.2,1.2l0.7,0.2c0.3,0.1,0.4,0.2,0.4,0.4s-0.2,0.4-0.6,0.4
			s-0.7-0.2-0.8-0.6h-1.1c0.1,0.9,0.8,1.4,1.9,1.4s1.8-0.5,1.8-1.4c0-0.3-0.1-0.6-0.3-0.8c-0.3-0.2-0.6-0.4-0.9-0.4L89.3,3
			c-0.4-0.1-0.5-0.2-0.5-0.3s0.2-0.3,0.6-0.3s0.6,0.2,0.7,0.5L91.2,2.8z M86.7,0h-1.2v1h1.2V0z M86.7,1.5h-1.2v4.1h1.2V1.5z
			 M82.5,2.4c0.6,0,0.9,0.5,0.9,1.2s-0.3,1.2-0.9,1.2s-0.9-0.4-0.9-1.2S82,2.4,82.5,2.4 M80.5,1.5v5.4h1.2V5.3
			c0.3,0.3,0.7,0.5,1.1,0.4c1.1,0,1.8-0.9,1.8-2.2c0.1-1-0.6-2-1.6-2.1c-0.1,0-0.1,0-0.2,0c-0.5,0-0.9,0.2-1.2,0.6V1.5L80.5,1.5z
			 M77.5,2.4c0.6,0,1,0.4,1,1.2s-0.4,1.2-1,1.2s-1-0.4-1-1.2S76.9,2.4,77.5,2.4 M77.5,1.4c-1.1-0.1-2.1,0.8-2.2,2c0,0.1,0,0.1,0,0.2
			c0,1.2,1,2.2,2.2,2.2c1.2,0,2.2-1,2.2-2.2c0.1-1.1-0.8-2.1-2-2.2C77.7,1.4,77.6,1.4,77.5,1.4 M74.6,0h-1.2v1h1.2V0z M74.6,1.5
			h-1.2v4.1h1.2V1.5z M72.2,0h-1.2v5.6h1.2V0z M69.1,1.5l-0.5,1.8c-0.1,0.4-0.2,0.6-0.2,0.9l-0.1-0.2c-0.1-0.3-0.1-0.3-0.2-0.7
			l-0.6-1.9h-1.3L67.6,5c0.1,0.3,0.2,0.4,0.2,0.5c0,0.4-0.2,0.5-0.6,0.5h-0.3v0.9h0.7c0.9,0,1.1-0.2,1.5-1.3l1.4-4.1L69.1,1.5z
			 M65.7,3h-2.8v1.1h2.8V3z M59.9,2.4c0.6,0,1,0.4,1,1.2s-0.3,1.2-1,1.2s-1-0.4-1-1.2S59.3,2.4,59.9,2.4 M59.9,1.4
			c-1.1-0.1-2.1,0.8-2.1,2c0,0.1,0,0.1,0,0.2c0,1.2,1,2.2,2.2,2.2c1.2,0,2.2-1,2.2-2.2c0.1-1.1-0.8-2.1-2-2.2
			C60.1,1.4,60,1.4,59.9,1.4 M57.2,1.5h-0.7V0.3h-1.2v1.3h-0.6v0.8h0.6v1.9c0,0.6,0,0.8,0.2,1s0.4,0.3,1,0.3h0.7V4.7h-0.4
			c-0.3,0-0.3,0-0.3-0.7V2.4h0.7L57.2,1.5z M54,0h-1.2v5.6H54V0z M50.6,4.3c-0.2,0.3-0.5,0.5-0.9,0.5c-0.4,0-0.6-0.2-0.6-0.4
			s0.2-0.4,0.6-0.5l0.4-0.1c0.2,0,0.3-0.1,0.4-0.1V4.3z M49.2,2.8c0-0.3,0.3-0.5,0.7-0.5s0.6,0.2,0.6,0.4S50.5,3,50.2,3l-0.7,0.1
			C48.4,3.3,48,3.7,48,4.4c0,0.7,0.6,1.3,1.3,1.3c0,0,0.1,0,0.1,0c0.4,0,0.9-0.1,1.2-0.4c0,0.1,0.1,0.2,0.1,0.3H52
			c-0.1-0.2-0.2-0.3-0.2-0.7V3c0.1-0.4-0.1-0.9-0.4-1.2C51,1.5,50.5,1.4,50,1.4c-1.1,0-1.7,0.5-1.8,1.4H49.2z M45.6,3.4h-1.3L45,1.3
			L45.6,3.4z M45.9,4.4l0.3,1.1h1.4L45.8,0h-1.6l-2,5.6h1.4L44,4.5L45.9,4.4z"/>
		<path d="M21.6,5.4h2.6c0.1,1.5-1.1,2.7-2.6,2.8c0,0,0,0,0,0v2.6c3.1-0.2,5.4-2.3,5.4-6.1V0h-5.4V5.4z"/>
		<path d="M28.8,5.4h2.6c0,1.5-1.1,2.7-2.6,2.8c0,0,0,0,0,0v2.6c3.1-0.2,5.4-2.3,5.4-6.1V0h-5.4V5.4z"/>
		<path d="M14.1,14H8.6l2.8-8L14.1,14z M22.7,22.5L14.8,0H8L0,22.5h5.7l1.4-4h8.6l1.4,4L22.7,22.5z"/>
	</g>
</g>
</svg>
