<svg xmlns="http://www.w3.org/2000/svg" viewBox="0 0 99.28 22.49"><defs><style>.cls-1{fill:#fff;}</style></defs><g id="Title_Screen" data-name="Title Screen"><g id="Elements"><path class="cls-1" d="M97.12,2.39c.61,0,1,.43,1,1.22s-.35,1.17-1,1.17-1-.44-1-1.2.34-1.19,1-1.19m0-1A2.07,2.07,0,0,0,95,3.58a2.16,2.16,0,0,0,4.32,0,2.06,2.06,0,0,0-2.16-2.17m-2.77.16h-.73V.31H92.43V1.6h-.58v.84h.58V4.3c0,.63,0,.85.23,1s.44.27,1,.27h.73v-.9h-.42c-.28,0-.31,0-.31-.69V2.44h.73ZM91.22,2.77c-.1-.86-.74-1.33-1.79-1.33s-1.73.5-1.73,1.32c0,.64.34,1,1.24,1.17l.74.17c.32.07.45.18.45.37s-.25.39-.62.39-.73-.18-.8-.56H87.59c.07.9.77,1.43,1.9,1.43s1.82-.54,1.82-1.4a1.16,1.16,0,0,0-.3-.82,1.69,1.69,0,0,0-.93-.39L89.33,3c-.38-.09-.49-.16-.49-.31s.22-.34.57-.34.64.16.69.46ZM86.7,0H85.51V1H86.7Zm0,1.55H85.51V5.62H86.7Zm-4.16.86c.55,0,.88.45.88,1.19s-.35,1.16-.87,1.16-.88-.45-.88-1.18.34-1.17.87-1.17m-2-.86V6.91h1.2V5.29a1.46,1.46,0,0,0,1.09.44c1.07,0,1.79-.86,1.79-2.16a1.89,1.89,0,0,0-1.8-2.13A1.27,1.27,0,0,0,81.66,2l0-.48Zm-3,.84c.61,0,1,.43,1,1.22s-.36,1.17-1,1.17-1-.44-1-1.2.35-1.19,1-1.19m0-1a2.06,2.06,0,0,0-2.16,2.14,2.16,2.16,0,0,0,4.32,0,2.07,2.07,0,0,0-2.16-2.17M74.58,0h-1.2V1h1.2Zm0,1.55h-1.2V5.62h1.2ZM72.25,0h-1.2V5.62h1.2ZM69.14,1.55l-.53,1.84c-.1.36-.16.64-.21.91l-.06-.16c-.09-.34-.09-.35-.21-.73l-.59-1.86H66.26L67.6,5c.14.35.15.38.15.52,0,.36-.2.52-.62.52h-.35v.9h.7c.91,0,1.1-.17,1.48-1.26l1.42-4.1ZM65.67,3H62.92V4.08h2.75Zm-5.74-.61c.62,0,1,.43,1,1.22s-.35,1.17-1,1.17-1-.44-1-1.2.35-1.19,1-1.19m0-1a2.06,2.06,0,0,0-2.15,2.14,2.16,2.16,0,0,0,4.32,0,2.07,2.07,0,0,0-2.17-2.17m-2.69.16h-.73V.31H55.32V1.6h-.58v.84h.58V4.3c0,.63,0,.85.23,1s.44.27,1,.27h.73v-.9h-.43c-.27,0-.3,0-.3-.69V2.44h.73ZM54,0H52.8V5.62H54ZM50.62,4.31a.93.93,0,0,1-.87.51c-.38,0-.61-.16-.61-.43s.18-.39.61-.49l.43-.09a2,2,0,0,0,.44-.13ZM49.24,2.83c0-.33.29-.49.72-.49s.63.15.63.38S50.5,3,50.23,3l-.65.11C48.44,3.29,48,3.69,48,4.45a1.32,1.32,0,0,0,1.49,1.28,1.58,1.58,0,0,0,1.17-.43,3,3,0,0,0,.09.32h1.23c-.14-.2-.16-.26-.16-.7V3.05a1.38,1.38,0,0,0-.4-1.19A2.08,2.08,0,0,0,50,1.43c-1.14,0-1.72.46-1.8,1.4Zm-3.65.62H44.32L45,1.26Zm.28,1,.3,1.13h1.44L45.82,0H44.24l-2,5.62h1.37L44,4.49Z"/><path class="cls-1" d="M21.59,5.41H24.2a2.67,2.67,0,0,1-2.61,2.76v2.55C24.69,10.55,27,8.46,27,4.58V0H21.59Z"/><path class="cls-1" d="M28.8,5.41h2.62A2.68,2.68,0,0,1,28.8,8.17v2.55c3.1-.17,5.41-2.26,5.41-6.14V0H28.8Z"/><path class="cls-1" d="M14.13,14H8.58l2.77-8Zm8.58,8.47L14.75,0H8L0,22.49H5.65l1.38-4h8.65l1.38,4Z"/></g></g></svg>