<?xml version="1.0" encoding="utf-8"?>
<!-- Generator: Adobe Illustrator 24.1.3, SVG Export Plug-In . SVG Version: 6.00 Build 0)  -->
<svg version="1.1" id="Layer_1" xmlns="http://www.w3.org/2000/svg" xmlns:xlink="http://www.w3.org/1999/xlink" x="0px" y="0px"
	 viewBox="0 0 66.3 19.9" style="enable-background:new 0 0 66.3 19.9;" xml:space="preserve">
<g id="Title_Screen">
	<g id="Elements">
		<path d="M8,15L3.4,9v6H0V0.6h3.4v6l4.4-6h3.9L6.4,7.7l5.7,7.3H8z"/>
		<path d="M22.4,15h-3.2c-0.2-0.5-0.3-1-0.3-1.5c-0.7,1.1-1.9,1.8-3.3,1.8c-2.5,0-3.7-1.6-3.7-3.4c0-3,3.3-3.6,6.9-3.3
			c0-1.2-0.4-1.9-1.6-1.9c-0.8-0.1-1.5,0.5-1.7,1.3h-3.2c0.4-2.4,2.2-3.8,5-3.8S22,5.4,22,9.1v3C22,13.1,22.1,14,22.4,15z
			 M18.8,10.5c-1.7-0.2-3.6,0.1-3.6,1.3c0,0.9,0.7,1.1,1.4,1.1C17.8,12.7,18.6,11.7,18.8,10.5L18.8,10.5z"/>
		<path d="M27.5,0.3V15h-3.3V0.3H27.5z"/>
		<path d="M27.6,16.9c0.7,0.1,2.3,0.4,2.3-1.5V4.6h3.3V15c0,3.7-1.6,4.9-4.2,4.9c-0.5,0-0.9,0-1.4-0.1L27.6,16.9z M29.9,0h3.3v2.9
			h-3.3V0z"/>
		<path d="M45.1,15h-3.2c-0.2-0.5-0.3-1-0.3-1.5c-0.7,1.1-1.9,1.8-3.3,1.8c-2.5,0-3.7-1.6-3.7-3.4c0-3,3.3-3.6,6.9-3.3
			c0-1.2-0.4-1.9-1.6-1.9c-0.8-0.1-1.5,0.5-1.7,1.3H35c0.4-2.4,2.2-3.8,5-3.8s4.8,1.1,4.8,4.8v3C44.7,13.1,44.8,14,45.1,15z
			 M41.5,10.5c-1.7-0.2-3.6,0.1-3.6,1.3c0,0.9,0.7,1.1,1.4,1.1C40.5,12.7,41.3,11.7,41.5,10.5L41.5,10.5z"/>
		<path d="M53.6,4.5c0.3,0,0.7,0,1,0.1v3.3c-0.5-0.2-1.1-0.4-1.6-0.3c-1.6-0.1-2.9,1.2-3,2.8c0,0.1,0,0.1,0,0.2V15h-3.3V4.6H50v2.1
			C50.7,5.3,52.1,4.4,53.6,4.5z"/>
		<path d="M58.3,4.6l2.3,6.2l2.3-6.2h3.4L62.1,15h-2.9L54.9,4.6H58.3z"/>
	</g>
</g>
</svg>
