<svg xmlns="http://www.w3.org/2000/svg" viewBox="0 0 66.34 19.94"><defs><style>.cls-1{fill:#fff;}</style></defs><g id="Title_Screen" data-name="Title Screen"><g id="Elements"><path class="cls-1" d="M8,15,3.43,9v6H0V.65H3.43v6l4.42-6h3.92L6.44,7.74,12.09,15Z"/><path class="cls-1" d="M22.39,15H19.2a4.56,4.56,0,0,1-.28-1.47,3.77,3.77,0,0,1-3.27,1.8c-2.46,0-3.72-1.56-3.72-3.38,0-3,3.35-3.55,6.86-3.33,0-1.18-.41-1.88-1.59-1.88A1.64,1.64,0,0,0,15.48,8H12.25c.43-2.43,2.25-3.76,5-3.76s4.78,1.14,4.78,4.82v3A8.44,8.44,0,0,0,22.39,15Zm-3.6-4.5c-1.69-.22-3.59.06-3.59,1.33,0,.9.69,1.15,1.41,1.08A2.8,2.8,0,0,0,18.79,10.54Z"/><path class="cls-1" d="M27.45.33V15H24.18V.33Z"/><path class="cls-1" d="M27.61,16.9c.68.1,2.29.39,2.29-1.53V4.58h3.27V15c0,3.74-1.63,4.9-4.21,4.9a11,11,0,0,1-1.35-.1ZM29.9,0h3.27V2.94H29.9Z"/><path class="cls-1" d="M45.1,15H41.91a4.56,4.56,0,0,1-.28-1.47,3.77,3.77,0,0,1-3.27,1.8c-2.45,0-3.72-1.56-3.72-3.38,0-3,3.35-3.55,6.86-3.33,0-1.18-.4-1.88-1.59-1.88A1.62,1.62,0,0,0,38.2,8H35c.43-2.43,2.24-3.76,5-3.76s4.78,1.14,4.78,4.82v3A8.44,8.44,0,0,0,45.1,15Zm-3.6-4.5c-1.69-.22-3.59.06-3.59,1.33,0,.9.69,1.15,1.41,1.08A2.8,2.8,0,0,0,41.5,10.54Z"/><path class="cls-1" d="M53.62,4.47a5.33,5.33,0,0,1,1,.11V7.91A3.72,3.72,0,0,0,53,7.56a2.89,2.89,0,0,0-3,3V15H46.73V4.58H50V6.72A3.91,3.91,0,0,1,53.62,4.47Z"/><path class="cls-1" d="M58.33,4.58l2.29,6.19,2.29-6.19h3.43L62.09,15H59.15L54.9,4.58Z"/></g></g></svg>