<?xml version="1.0" encoding="utf-8"?>
<!-- Generator: Adobe Illustrator 27.2.0, SVG Export Plug-In . SVG Version: 6.00 Build 0)  -->
<svg version="1.1" id="Layer_1" xmlns="http://www.w3.org/2000/svg" xmlns:xlink="http://www.w3.org/1999/xlink" x="0px" y="0px"
	 viewBox="0 0 170.1 149.6" style="enable-background:new 0 0 170.1 149.6;" xml:space="preserve">
<style type="text/css">
	.st0{fill:#FFFFFF;}
</style>
<g>
	<path class="st0" d="M113.9,135c-2,0-3.6,1-4.7,2.6v-2.2h-3.5v13.8h3.5v-7c0-2.3,1.4-3.9,3.2-3.9c1.9,0,2.8,1.1,2.8,2.9v7.9h3.5
		v-9.4C118.8,136.9,116.9,135,113.9,135z"/>
	<path class="st0" d="M108.6,117.6c0-2.3-1.4-3.6-4.6-4.3c-2.2-0.4-3.3-1.1-3.3-1.9c0-0.9,0.9-1.2,2.1-1.2c1.4,0,2.5,0.9,3.1,2.4
		l2.5-1.5c-1.1-2.3-2.7-3.5-5.7-3.5c-2.7,0-5.1,1.4-5.1,4c0,2.5,2.1,3.8,4.8,4.3c2,0.4,2.9,0.9,2.9,1.8c0,1-1.1,1.5-2.2,1.5
		c-1.8,0-3-1.3-3.6-3l-2.8,1.8c0.9,2.1,2.9,4.1,6.3,4.1C106.6,122.2,108.6,120.2,108.6,117.6z"/>
	<path class="st0" d="M95,135c-3.8,0-7.5,2.4-7.5,7.3c0,4.8,3.8,7.3,7.5,7.3c3.8,0,7.5-2.4,7.5-7.3C102.5,137.5,98.7,135,95,135z
		 M95,146.3c-2.1,0-4-1.5-4-4c0-2.5,1.9-4,4-4c2.1,0,4,1.5,4,4C98.9,144.8,97,146.3,95,146.3z"/>
	<path class="st0" d="M160.6,142.2c0-2.3,1.4-3.9,3.2-3.9c1.9,0,2.8,1.1,2.8,2.9v7.9h3.5v-9.4c0-2.9-1.9-4.8-4.8-4.8
		c-2,0-3.6,1-4.7,2.6v-2.2h-3.5v13.8h3.5V142.2z"/>
	<path class="st0" d="M81,108v13.8h3.5v-7c0-2.3,1.4-3.9,3.2-3.9c1.9,0,2.8,1.1,2.8,2.9v7.9H94v-9.4c0-2.9-1.9-4.8-4.8-4.8
		c-2,0-3.6,1-4.7,2.6V108H81z"/>
	<polygon class="st0" points="118.9,112.9 124,108 119.6,108 115.4,112.2 115.4,102.3 111.9,102.3 111.9,121.8 115.4,121.8 
		115.4,116.4 116.5,115.3 120.6,121.8 124.6,121.8 	"/>
	<path class="st0" d="M133,137.1c-0.8-1.3-2.3-2.1-4.3-2.1c-3.4,0-6.8,2.7-6.8,7.3c0,4.6,3,7.3,6.8,7.3c2.1,0,3.6-1.1,4.3-2.3v1.9
		h3.5v-19.5H133V137.1z M129.3,146.3c-2.2,0-3.9-1.7-3.9-4c0-2.3,1.7-4,3.9-4c2.2,0,3.9,1.7,3.9,4
		C133.2,144.6,131.5,146.3,129.3,146.3z"/>
	<path class="st0" d="M45.7,146.5c-1.1,0-1.8-0.5-1.8-1.9v-6.3h3v-2.8h-3v-3.7h-3.5v3.7h-2.1v2.8h2.1v6.9c0,3.4,2,4.4,4.4,4.4
		c0.8,0,1.7-0.2,2.3-0.4l-0.3-2.9C46.6,146.4,46.2,146.5,45.7,146.5z"/>
	<path class="st0" d="M59.6,142.5c0,2.2-1.3,3.8-3.2,3.8c-1.9,0-2.8-1.1-2.8-3.1v-7.8h-3.5v8.6c0,3.7,2.2,5.6,5.1,5.6
		c1.9,0,3.5-0.9,4.4-2.6v2.2h3.5v-13.8h-3.5V142.5z"/>
	<rect x="31.8" y="129.7" class="st0" width="3.5" height="19.5"/>
	<path class="st0" d="M70.9,119.2c-2.1,0-3.6-1.3-3.8-3.4h10.6v-1.2c0-4-2.8-6.9-6.7-6.9c-4,0-7.3,2.9-7.3,7.3
		c0,4.4,3.3,7.3,7.1,7.3c3.1,0,5.2-1.3,6.5-4l-2.6-1.5C73.9,118.2,72.8,119.2,70.9,119.2z M70.9,110.3c2,0,3.3,1.1,3.6,2.9h-7.4
		C67.6,111.6,69,110.3,70.9,110.3z"/>
	<polygon class="st0" points="56.9,121.8 62.4,108 58.7,108 55.2,117.3 51.7,108 48,108 53.6,121.8 	"/>
	<path class="st0" d="M84.5,131.6c0.3,0,0.6,0,1,0.2l0.6-3.1c-0.6-0.2-1.2-0.3-1.8-0.3c-2.8,0-4.9,1.7-4.9,5.1v1.9h-2v2.8h2v11H83
		v-11h3v-2.8h-3v-2C83,132.2,83.5,131.6,84.5,131.6z"/>
	<path class="st0" d="M70.5,137.6v-2.2H67v13.8h3.5v-6.8c0-2.3,1.3-4.1,3.3-4.1c0.4,0,0.8,0.1,1.1,0.2l0.6-3.3
		c-0.4-0.1-0.8-0.2-1.2-0.2C72.5,135,71.3,136,70.5,137.6z"/>
	<rect x="76.9" y="64.1" class="st0" width="16.2" height="4.2"/>
	<rect x="86.5" y="47.4" transform="matrix(0.7071 -0.7071 0.7071 0.7071 -8.7738 78.3007)" class="st0" width="7.2" height="4.6"/>
	<path class="st0" d="M103,40.1c0.9-0.9,2.2-1.5,3.5-1.5c1.3,0,2.6,0.5,3.5,1.5c1.9,1.9,1.9,5.1,0,7.1c-0.9,0.9-2.2,1.5-3.5,1.5
		c-1.3,0-2.6-0.5-3.5-1.5l-13-13l-3.2,3.2l13,13c1.8,1.8,4.2,2.8,6.8,2.8c2.6,0,5-1,6.8-2.8c3.7-3.7,3.7-9.8,0-13.6
		c-1.8-1.8-4.2-2.8-6.8-2.8c-2.6,0-5,1-6.8,2.8l-1.6,1.6l3.2,3.3L103,40.1z"/>
	<path class="st0" d="M38.5,119c-2.9,0-4.4-1.8-4.9-4.6l-3.2,1.6c0.7,3.6,3.3,6.2,8.2,6.2c4.5,0,7.3-2.8,7.3-6c0-3.3-2.1-5.1-6.4-6
		c-3.3-0.7-4.7-1.5-4.7-3c0-1.4,1.5-2,3.3-2c2.3,0,3.8,1.2,4.6,3.4l2.9-1.7c-1.2-3.3-3.8-5-7.4-5c-4.1,0-6.8,2.1-6.8,5.3
		c0,3.3,2.6,5.1,6.1,5.8c3.1,0.6,4.8,1.4,4.8,3.2C42.1,117.9,40.7,119,38.5,119z"/>
	<path class="st0" d="M85,83.7c23.1,0,41.8-18.8,41.8-41.8C126.9,18.8,108.1,0,85,0S43.2,18.8,43.2,41.8C43.2,64.9,62,83.7,85,83.7z
		 M85,4.6c20.5,0,37.2,16.7,37.2,37.2c0,20.5-16.7,37.2-37.2,37.2c-20.5,0-37.2-16.7-37.2-37.2C47.8,21.3,64.5,4.6,85,4.6z"/>
	<path class="st0" d="M79.8,30.5l3.2-3.2l-1.6-1.6c-0.9-0.9-1.5-2.2-1.5-3.5c0-1.3,0.5-2.6,1.5-3.5c0.9-0.9,2.2-1.5,3.5-1.5
		s2.6,0.5,3.5,1.5c1.9,1.9,1.9,5.1,0,7.1L87.1,27l0,0L75.8,38.3l3.2,3.2l12.7-12.7c3.7-3.7,3.7-9.8,0-13.6c-1.8-1.8-4.2-2.8-6.8-2.8
		c-2.6,0-5,1-6.8,2.8c-1.8,1.8-2.8,4.2-2.8,6.8c0,2.6,1,5,2.8,6.8L79.8,30.5z"/>
	<path class="st0" d="M70.3,50.3l1.6-1.6l-3.2-3.3L67.1,47c-0.9,0.9-2.2,1.5-3.5,1.5C62.2,48.5,61,48,60,47
		c-0.9-0.9-1.5-2.2-1.5-3.5c0-1.3,0.5-2.6,1.5-3.5c0.9-0.9,2.2-1.5,3.5-1.5c1.3,0,2.6,0.5,3.5,1.5L81,53.9l3.3-3.2L70.3,36.7
		c-1.8-1.8-4.2-2.8-6.8-2.8c-2.6,0-5,1-6.8,2.8C55,38.5,54,40.9,54,43.5c0,2.6,1,5,2.8,6.8c1.8,1.8,4.2,2.8,6.8,2.8
		C66.1,53.1,68.5,52.1,70.3,50.3z"/>
	<polygon class="st0" points="3.5,143.8 4.6,142.7 8.7,149.2 12.7,149.2 7,140.3 12,135.4 7.7,135.4 3.5,139.6 3.5,129.7 0,129.7 
		0,149.2 3.5,149.2 	"/>
	<path class="st0" d="M146.8,149.6c3.1,0,5.2-1.3,6.5-4l-2.6-1.5c-0.8,1.6-1.9,2.5-3.8,2.5c-2.1,0-3.6-1.3-3.8-3.4h10.6v-1.2
		c0-4-2.8-6.9-6.7-6.9c-4,0-7.3,2.9-7.3,7.3C139.8,146.7,143,149.6,146.8,149.6z M146.9,137.7c2,0,3.3,1.1,3.6,2.9h-7.4
		C143.6,139,145,137.7,146.9,137.7z"/>
	<rect x="76.9" y="57.1" class="st0" width="16.2" height="4.2"/>
	<path class="st0" d="M130.4,111.9c-0.1-0.2-0.1-0.2-0.1-0.3c0-0.9,0.9-1.6,2.5-1.6c1.7,0,2.5,0.8,2.5,2.1v0.5l-4.1,0.6
		c-2.6,0.4-4.9,1.7-4.9,4.6c0,2.6,1.9,4.3,4.6,4.3c2,0,3.6-0.9,4.6-2.6c0,1.2,0.4,1.9,0.7,2.2h3.6c-0.7-1-0.9-1.8-0.9-3.4v-5.8
		c0-3.4-2.2-5-6-5c-3.7,0-5.8,2.1-5.8,4.2c0,0.4,0.1,0.8,0.2,1.2L130.4,111.9z M135.3,115.3c0,2.7-1.6,4-3.6,4
		c-1.2,0-2.1-0.6-2.1-1.7c0-1.1,0.8-1.8,2.3-2l3.3-0.6V115.3z"/>
	<path class="st0" d="M19.8,149.6c1.9,0,3.5-0.9,4.4-2.6v2.2h3.5v-13.8h-3.5v7.1c0,2.2-1.3,3.8-3.2,3.8c-1.9,0-2.8-1.1-2.8-3.1v-7.8
		h-3.5v8.6C14.7,147.7,17,149.6,19.8,149.6z"/>
</g>
</svg>
