<?xml version="1.0" encoding="utf-8"?>
<!-- Generator: Adobe Illustrator 27.2.0, SVG Export Plug-In . SVG Version: 6.00 Build 0)  -->
<svg version="1.1" id="Layer_1" xmlns="http://www.w3.org/2000/svg" xmlns:xlink="http://www.w3.org/1999/xlink" x="0px" y="0px"
	 viewBox="0 0 171.2 166.1" style="enable-background:new 0 0 171.2 166.1;" xml:space="preserve">
<style type="text/css">
	.st0{fill-rule:evenodd;clip-rule:evenodd;fill:#FFFFFF;}
</style>
<g>
	<path class="st0" d="M102.9,57.4c-0.6,0.2-3.9,2.5-4.7,3.1c0.3,0.8,1.6,1.7,2.4,1.9c1,0.3,1.9,0.6,2.9,0.1c0.7-0.2,0.8-1,0.8-1.7
		C104.4,59.5,104,58,102.9,57.4 M70.7,62.9c0,0,2.1-0.8,2.4-2.3c-0.4-0.4-0.8-0.7-1.3-0.9c-0.7-0.6-2.7-2.2-3.2-2.3
		c-0.8,0-1.1,1.1-1.1,1.6c-0.3,0.9-0.4,2.1,0.2,3.1C68.5,63.2,69.6,63.1,70.7,62.9 M56.4,81.7c1.2-0.1,2.1-0.3,2.8-1.2
		c0.4-0.7,1.2-1.5,0.6-2.2c-1.6-0.3-3.6-0.7-5.1-1.4c-0.5,0.1-0.6,0.5-0.8,0.9c-0.2,0.3,0.1,1.4,0.1,1.4
		C54.2,80.4,55.3,81.4,56.4,81.7 M117,76.4c-1.5,0.1-2.8,1-4.6,1.7c-1.1,0.5-0.4,1.2,0.2,2c1,1,2.1,1.5,3.6,1.1
		c1.3-0.8,1.7-2.2,1.4-3.6C117.6,77.5,117.5,76.6,117,76.4 M58,108.6c1.3,0.2,2.5-0.5,3.4-1.5c0.9-0.8,1.2-2.1,1.1-2.5
		c-1.6,0-4.1,0-6.3-0.5C55.7,105,56.3,107.7,58,108.6 M113.9,103.5c-1.2,0.4-2.2,0.5-3.4,0.9c0.2,0.6,0.3,1.3,0.6,1.8
		c0.5,1.3,2.1,2,3.3,2c0,0,1.4-0.5,1.5-1.2c0.4-0.9,0.5-2.2,0.1-3.1C115.8,102.6,114.7,103.4,113.9,103.5 M121.7,70.1
		c1.8-0.3,3.3-1.1,5.4-0.8c2.1,0,2.8,3.1,5,2.3c1.1,0.6,1.2,2.2,2.3,2.8c0.6,0.3,1.1,0.1,1.6-0.3c1-0.2,1.4,0.6,2.1,1.1
		c0.8,0.3,1.6-0.2,2-0.9c0.9-0.4,1.6,0.7,2.4,0.5c0.6-0.1,0.7-0.7,1.1-1c0.7,0,1.4,0.3,2.1,0.3c0.8-0.2,0.5-1.3,1.2-1.4l-0.2-0.2
		c0.6-2.1-3.3-1.5-2.2-3.9c-0.4-1.1-1.7-0.4-2.4-1.1c-0.2-0.3-0.4-0.7-0.3-1.2c-1.1-1.8-3-0.1-4.6-0.3c-0.7,0-0.4-1.2-1.3-0.8
		c-1.3-0.2-2,1.6-3.4,1.3c-2.4-1.2-4.2,2-6.6,0.8c0.5-2.1,3.1-1.4,4.3-3c0.3-2.7,3.7-1.1,4.8-3.2c0.4-0.9-0.4-1.4-0.3-2.2
		c1-1.2,2.7-2.1,2.9-3.7c-0.1-0.7-0.8-1-1.3-1.4c-0.7-0.7-0.1-1.6,0.4-2.2c0.1-0.7,0.3-1.5-0.6-1.9c-1.8,0-0.7-1.9-1.3-2.8
		c-0.4-0.3-0.9-0.3-1.3-0.3c-2.6-1.3-1,2.8-3.4,2.4c-1.9,0.8,0.1,2.7-1.1,3.7c-0.3,0-0.5,0.3-0.8,0.2c-0.1,0-0.4,0.1-0.5,0.2
		c-0.6,1.1-0.3,2.5,0.3,3.5c-0.2,0.3-0.4,0.7-0.8,0.8c-1.8,1.1,0.2,2.5-0.2,3.9c-1.4,0.7-0.7,2.2-1.3,3.3c-0.5,1.7-2.2,2.3-3.7,2.7
		c-0.1,0-0.9,0.2-1,0.3c-1,0.3-2.1,0.2-3.1,0.3c-1,0-1.5-0.2-2.4-0.2c-0.4-0.3-1.3,0.1-1.2-0.7c0.5-0.6,1.5-0.8,2.2-0.7
		c1.4,0.7,1.8-1.3,3-1.5c0.1,0,0.6,0.2,0.9,0.1c0.4,0,0.7-0.1,0.8-0.1c0.6-0.2,1.4-0.5,1.5-1.3c-0.9-1.9,1.8-1.5,2.4-2.7
		c0.3-0.5,0.2-1.2-0.4-1.5c-0.3-0.8,0.4-1.3,0.8-1.9c0.3-0.7-0.5-0.7-0.7-1.2c-0.4-0.7,0.4-1.4,0.4-2.1c-0.1-0.6-0.6-1-1.1-1.2
		c-0.9-0.4-1.2,0.9-1.8,1.3c-0.5,0.4-1-0.1-1.6-0.1c-0.4,0.2-0.6,0.6-0.6,1c-0.4,1.2-1.6,0.2-2.2,1c-0.2,0.6-0.5,1.1-0.4,1.9
		c-0.2,0.2-0.4,0.3-0.7,0.3c-0.1,0-0.5,0-0.6,0.1c-1.2,0.7-0.7,2.3-0.8,3.6c-0.4,0.5-1,1-1.1,1.6c0.2,0.6-0.3,1.3-0.4,1.5
		c0,0-0.7,0.6-0.8,0.7c-1.1,0.9-2.9,1.1-4.2,0.6c-0.3-0.1-0.8-0.1-0.7-0.5c0.8-0.7,2.7-0.3,2.6-1.9c-0.1-0.2-0.4,0-0.5-0.2
		c0.8-0.7,2.2-0.9,2.5-2.1c-0.2-0.3-0.4-0.2-0.7-0.3c0-0.9,1-1.5,0.6-2.3c-0.8-0.3-1.5,0.8-2.2,1.2c-0.2-0.3-0.4-0.8-0.4-1.2
		c-1-0.4-1.2,1.4-2.1,1.6c-0.1-0.1-0.5-0.8-0.9-0.6c-1.3,1.4-0.1,3.9-2.2,4.7c-1.8,0.3-3.8-0.5-5.7-0.7c-2.2-0.3-4.5,0.2-6.5,0.8
		c0.2-0.1-0.7,0.4-1.2,0.5c-0.8,0-1-0.5-1.3-1.4c-0.1-1.4-0.3-2.6-0.3-3.9c0-1.1-0.1-1.6,0-2.4c0.2-1.8,1.5-3.6,3.2-4.2
		c0.8-0.2,1.7-0.4,2.4,0.1c0,0.1,0.8,0.5,1.2,1c0.1,0.5,0,1.1-0.4,1.5c-0.6,1.1-0.3,2.6,0.3,3.2c0.1,0.1,0.3,0.2,0.4,0.2
		c0.8,0.1,1.7-0.7,2.4-1.2c1.1-1,2.5-1.6,3.2-3c-0.8-1-2-1.4-3.2-1.5c-0.2,0-0.9,0-1,0c-1,0-1.3-1.2-2-1.7c-0.1-0.2-0.2-0.7,0.1-0.8
		c1.1-0.6,2.4-1.2,3.7-0.7c1.1,0.2,2.4,0.9,2.6,2.1c0.3,0.6,1,1.1,1.6,1c1.2-0.2,1.4,1.4,2.2,2.1c0.2,0,0.4,0.4,0.6,0
		c0.3-0.4,0.9-0.5,1.3-0.3c1,0.6,1.6,1.3,1.9,1.4c1.3,0.6,1.3-1.3,2.5-0.9c0.7,0.5,1.8,0.6,2.6,0.4c0.8-0.1,0.6-0.9,0.8-1.4
		c0.1-0.1,0.5-0.6,0.6-0.7c0.4-0.3,1.2,0,1.8-0.1c0.6-0.3,0.9-0.9,0.9-1.5c0.1-1.1,1.4-0.5,1.9-1.2c0.6-0.6-0.1-1.2-0.1-1.8
		c-0.6-1.2-1.8,0-2.6-0.4c-0.4-0.2-0.5-0.6-0.8-0.9c-0.6-0.6-1.2,0.2-1.8,0.3c-1,0.6-1.1-0.7-1.9-1c-0.7-0.2-1.4,0.2-1.9,0.6
		c-1.4,0.7-1.4-1.5-2.8-1.1c-0.7,0.5-1.8,0.7-2.2,1.6c-0.7,0.5-1.6,0.3-2.4,0c-1.3,0.5-3.2,1.2-4.4,0c0.2-0.4,0.6-0.5,1-0.7
		c1.6-1.6,3.7-1.2,5.6-1c0.6-0.7,1.1-1.2,1.1-1.2c0.7-0.7,1.7-0.1,2.6-0.3c0.6,0.3,1.6,0.3,2.2,0c1.1-0.3,0.6-1.5,1.1-2.1
		c1.6-0.4,3.6,0.6,4.5-1.2c-1.2-1.8,1.1-2.2,1.7-3.3c0.6-0.5,0-1.2-0.5-1.5c-0.6-1.3,1.2-1.7,1.1-2.8c-0.2-1-1.1-1.9-2-2.1
		c-1.2,0.9-2.3,1.2-3.6,0.3c-0.7,0.2-1.1,0.8-1.5,1.3c-0.8,0.5-1.5,0.1-2.2-0.2c-0.5,0.3-0.8,0.8-1.1,1.2c-0.5,0.7,0.1,1.8-0.7,2.2
		c-0.7,0.4-1.1-0.4-1.9-0.2c-0.6,0.4-1,1-1.3,1.6c-0.1,0.2-0.3,1.1-0.3,1.3c0,0.5-0.2,0.9-0.5,1.3c-0.3,0.1-0.5,0.2-0.8,0.3
		c-0.1,0-1,0.3-1.1,0.5c-0.5,0.6-0.6,1.5-0.9,2.2c-1,1.8-3,2.9-5.1,3.1c-0.3,0-0.2-0.3-0.2-0.5c0.4-1.7,1.7-2.8,3.1-3.6
		c0-0.3,0.2-0.3,0.1-0.6c0.2-2.4,4-1.1,3.9-3.9c-1.9-2.5,2.5-2.6,1.8-5c-0.3-0.5-0.8-0.7-1.2-0.9c-0.5-0.4-0.4-1.1-0.2-1.7
		c0.6-0.8,0.5-1.6,0-2.5c-0.4-0.2-0.7-0.5-1.2-0.4c-1.3-0.4-0.4-1.9-0.8-2.8c-0.3-0.9-1.1-0.6-1.8-0.6c-0.2,0-0.8,0.2-0.9,0.3
		c-0.4,0.5-0.4,1.1-0.5,1.7c-0.5,0.7-1,0.4-1.6,0.4c-1.7,0.4-0.4,2.3-1.3,3.2l-0.1,0.2c-0.6,0.4-1.6,0.4-1.8,1.3
		c0.1,1,0.6,2,1.4,2.8c0.9,1.6-1.1,1.5-1.4,2.6c0.2,1.1,0.9,2,1.4,2.8c0.3,0.6-0.1,1.3-0.6,1.6c-0.5,0.6-0.1,1.4,0.2,2
		c0.7,1.3-0.4,2.6-1,3.6c-0.9,1-2.3,1.1-3.5,1.7c-0.8,0.6-1.6,1.1-2.7,1.1c-0.6-0.3-0.4-1-0.5-1.4c0.5-1.3,1.8-2.1,3.1-2.5
		c1.2-0.5,1.1-1.2,1-1.3c0-0.5-0.5-0.2-0.7-0.6c0-0.7,0.7-0.5,1.1-0.9c0.5-0.4,1-0.9,1-1.5c-0.1-0.4,0.2-0.8-0.2-1
		c-0.7,0-1.2,1-1.9,0.6l0-0.2c0.6-0.2,1.3-0.7,1.4-0.8c0.6-0.6,0.8-1.6,0.6-2.3c-0.1-0.5-0.7-0.6-1-0.2c-0.5,1.3-1.9,1.6-2.9,2.4
		l-1.5,2c-0.9,1-0.5,2.6-1.2,3.5c-0.2,0-0.4,0-0.6-0.1c-0.2-0.4-0.4-2.8,0.2-3.1c-0.1-1.1,2.1-1.7,1.1-2.9c-0.8-1.5,1.3-2,2.1-3
		c1.1-1.2-1.1-1.2-0.8-2.3c0.7-1.2,2.4-1.9,2-3.7c-0.1-1.2-1.4-0.3-1.8-1.3c-0.3-1.2,0.5-2,0.4-3c-0.4-1.3-1.8-0.5-2.5-1.4
		c-0.3-0.7-0.3-1.3-0.2-2c0-0.2-0.4-0.6-0.4-0.6c-0.7-0.5-1.4,0.2-2.2,0c-0.1,0-0.4-0.2-0.8,0c-1.1,0.5-0.2,2.4-1,3.2
		c-0.6,0.1-1.2,0-1.7,0.1c-0.7,0.4-0.6,1.3-0.5,2c0.3,0.5,0.6,1.5,0.6,1.5c0,1.2-1.5,0.6-1.8,1.6c-0.3,0.8,0.3,1.9,0.3,2.2l1,0.6
		c2.6,1.1-1,1.7-0.1,3.2c0.6,0.6,1.6,1,1.6,1l0.8,0.6c0.1,0.1,0.2,0.2,0.2,0.4c0,0-0.8,1.1-0.4,1.8c1.5,1.5,2.1,3.1,1.3,5.2
		c-1.3-0.3-0.9-2.3-1.6-3.1c-0.9-2.5-4.2-2.8-5.1-5.4c-0.3,0.3-0.9,0.9-0.8,1.4c0.1,1.2,1.1,1.8,2,2.6c-0.6,0.3-1.2-0.2-1.9-0.4
		c-0.2,0-0.2,0.1-0.2,0.3c0,0.1,0,0.5,0,0.9c0.3,0.9,1.3,1.4,2.1,1.8c0.2,0.6-0.5,0.3-0.7,0.7c0.1,0.4,0.2,0.8,0.5,1.1
		c1.3,1,3.7,1.1,3.7,3.3c0,0.3-0.2,0.6-0.5,0.7c-0.5,0.2-1.7-0.5-1.7-0.5c-1.9-0.3-3.7-1.2-5-2.7c0,0-0.5-0.9-0.6-1.2
		c-0.3-1,0.4-2.4,0.3-3.5c-1.6-1.5,1-3,0.6-4.6c0.1-1-1.1-0.7-1.4-1.5c-0.5-1.6,1.5-2.4,1.4-4c-0.1-0.9-1-0.8-1.6-1.1
		c-0.6-0.8-0.4-1.9-0.5-2.9c-0.4-1.6-1.7,0.2-2.5-0.7c-0.2-0.4-0.9-2.4-0.9-2.4c-0.6-0.2-1.2,0.1-1.9,0.1c-1.4,0.5-0.1,2.3-1.1,3.2
		c-0.2,0.2-0.6,0.1-0.6,0.2c-2.3,0.6-0.4,2.7-0.7,4.1c-0.3,0.5-0.8,0.8-1.3,1c-0.5,1.6,1.3,2.8,2.2,4c0.3,0.7-0.4,1.3-0.5,1.9
		c0.4,1.2,1.7,1.6,2.7,1.9c1.5,0.5,1,2.5,2.3,3c0.1,0,0.6,0.3,0.7,0.4c0.4,0.4,0.9,0.7,1.2,1.2c0.1,0.4,0.6,1.2-0.1,1.4
		c-1.1-0.1-2.1-0.5-3-0.8c-1.8-0.7-2.1-2.6-2.8-4.1c-0.6-0.6-1.5-0.3-2.1-0.7c-0.6-1.2-0.6-2.7-1.4-3.9c-0.3-0.2-0.7-0.6-1.2-0.4
		c-2.5,1.5-1.7-2-2.9-2.9c-0.3,0-0.6-0.1-1,0.2c-1.2,0.4-1.8-0.7-2.6-1.4c-0.8-0.3-1.4,0.5-2.1,0.6c-0.6,0-1.1-0.2-1.4-0.7
		c-1.1-1.1-1.8,0.6-2.5,1.1c-0.6,1.2,1.2,1.7,1.3,2.7c0,0.5-0.1,1-0.5,1.3c-0.4,0.5-0.2,0.9,0.2,1.2c0.2,0.3,1.3,1.3,1.6,1.5
		c0,0.5,0,1-0.1,1.5c0.8,1.2,2.1,1.1,3.3,1c1.2,0,1.2,1,1.4,1.5c0.7,2.1,3.4,0.3,5.2,0.7c0.8,0,0.7,1,1.3,1.2c0.5,0,1,0.3,1.4,0
		c1.1-0.7,2.8,0.2,3.9,0.6c0.5,0.4,1.6,0.7,1.4,1.5c-1.3,0.2-2.8,0.3-3.9-0.4c-1.8,1-3.3-0.4-4.4-1.3c-0.4-0.1-0.7-0.2-1,0
		c-0.3,0.2-0.4,0.7-0.8,0.9c-0.1,0.1-0.6,0.2-0.7,0.1c-0.4,0-0.8-0.5-1.2-0.7c-0.6-0.1-1.2-0.3-1.6,0.2c-0.7,1.7-2.4,0.1-3.5,0.5
		c-0.6,1.9-2.3-0.1-3.3,1c-0.3,0.5-0.6,1.3-0.4,1.9c0.4,0.3,0.7,0.6,1.2,0.4c0.8,0.2,1.2,1,1.1,1.8c0.5,0.8,1.3,0.5,1.9,0.8
		c1.3-0.5,1,1.4,1.7,1.9c0.9,0.3,2,0.2,2.7-0.3c1-0.5,1.1,0.6,1.8,0.9c0.5-0.1,1-0.3,1.5-0.5c0.8-0.3,1.1-1.6,2.2-1.3
		c2,1.5,2-2,3.7-1.7c1.3-0.5,1.7-2.3,2.9-3c1-0.6,2.1-0.3,3.1,0c0.6,0.2,1.6,0.3,1.6,1.2c-0.6,0.6-0.9,1.8-1.9,2
		c-1.4-0.3-3.2-0.2-4.2,1.2c0,0.5,0.9,1,1.3,1.4c1.6,0.8,2.7,2.6,4.6,2.8c0.6-0.6,0.7-1.4,0.8-2.1c0-0.2-0.2-1.4-0.5-1.6
		c-0.3-0.4-0.6-0.7-0.4-1.2c0.7-1.2,2.1-1.5,3.4-1.3c1.3,0.6,2.4,1.7,3.2,2.9c0.3,0.3,0.2,0.4,0.3,0.8c0.2,2,0.3,3.9,0.3,5.9
		c0,0,0.1,0.7-0.2,1.5c-0.2,0.5-0.7,0.9-1.3,0.9c-2.1-1.2-4.9-1.7-7.2-1.2c-2.2,0-4.3,1.3-6.5,0.8c-1.7-0.5-1.3-2.6-1.7-3.8
		c-0.4-1.1-0.9,0.2-1.5,0.1c-0.4-0.2-0.4-0.6-0.5-1c-0.1-0.5-0.7-0.8-1.2-0.9c-0.6,0.2-0.4,1.1-1,1.2c-0.1-0.1-0.3-0.2-0.4-0.3
		c-0.1-0.1-0.7-0.6-0.8-0.7c-0.3-0.2-0.6-0.4-0.9,0.1c0.1,0.7,0.4,1.4,0.7,2c-0.6,0.4-0.3,0.9,0,1.3c0.1,0.1,0.6,0.5,0.7,0.6
		c0.8,0.4,0.8,1.3,1.4,1.8c0.4,0.4,0.7,0.5,0.8,0.5c0.4,0.2,0.9,0.1,1,0.7c-0.5,0.1-1.5,0.4-1.5,0.4c-1.2,0-2.2,0.5-3.2-0.1
		c-0.5-0.4-1.3-0.9-1.1-1.7c-0.4-0.5-0.2-1.3-0.5-1.8c-2.1-0.3-0.6-2.3-0.9-3.5c-0.2-1.1-1.6-0.7-2.3-0.9c0.2-0.6-0.2-1.2-0.2-1.8
		c-0.1-0.8-1.1-0.9-1.7-0.7c-0.5-0.1-0.6-0.6-0.8-1c-0.4-0.9-1.2-0.6-2-0.5c-0.4-0.4-0.8-0.7-1.1-1.2c-0.4-0.3-1,0-1.4,0.1
		c-1.7,1.1,0.9,2.6-0.7,3.6c-0.5,0.7,0.5,1.1,0.9,1.8c0.4,0.9-0.9,0.8-0.7,1.8c0.5,1.2,1.8,1,2.6,1.7c0.4,0.4-0.1,0.9-0.1,1.3
		c0.6,1.6,2.4,1.1,3.8,1.3c0.7,0.3,0.5,1.1,1.3,1.3L56,67c0,0,0.4,0.2,0.6,0.2c0.2,0.2,0.7,0.2,0.6,0.6c-0.2,0.3-0.6,0.2-0.8,0.4
		c-1.2,0-2.4,0.5-3.6,0.2c-2.6,0.5-5.2-0.5-7.1-2.3c-1.5-1,0.5-3.5-1.8-3.8c-0.5-1.3,1-2,0.6-3.4c-0.1-0.9-1-0.4-1.6-1.1
		c-0.7-1.3,1.3-2.5,0.3-3.7c-0.3-0.2-0.7-0.3-1.1-0.2c-0.2-0.1-0.5-0.5-0.5-0.5c-0.5-1.1,0.5-2.4-0.5-3.4c-0.3,0.1-0.7-0.2-0.9-0.1
		c-1.1,0-0.9-1.3-1.2-2c-0.4-1.2-1.5-0.5-2.3-0.7c-1.2,0.5-1,1.8-1,2.8c-0.2,0.7-1,0.5-1.5,0.8c-0.2,0.2-0.2,0.4-0.2,0.6
		c0,0.6,0.3,1.6,0.7,2c0.7,1.5-1.5,1.4-1.3,2.8c0.3,1.1,0.8,2.2,2,2.8c1.4,0.6,0.2,2.2,0.6,2.9c1.3,1.6,3.5,1.1,4.9,2.4
		c-0.1,1.7,2,1.6,3,2.2c0.5,0.6,1.6,0.7,1.5,1.5c-0.2,0.1-1,0-1.2,0c-1.8,0.1-3.2-1.2-4.9-1.3c-1.9,1.7-3.1-1.9-5-0.6
		c-0.8,1.6-2.3-0.1-3.5,0c-0.6,0.2-1.6,0.2-1.7,1.1c0.4,2.1-2.5,0.6-2.8,2.1c0.4,1.4-1,2-1.9,2.7c-0.7,0.7-0.1,1.4,0.3,2.1
		c0.1,0.2,0.1,0.5,0.4,0.6c0.7,0.3,1.3-0.2,2-0.3c0.5,0.2,0.9,0.4,1.1,0.9c0.8,0.3,1.5-0.2,1.9-0.5c1-0.5,1,0.9,1.8,1.1
		c0.9,0.2,1.7-0.9,2.5-1.3c0.5,0,0.8,0.2,1.2,0.6c1.7,0.4,2-1.8,2.8-2.7c0.8-1,2.3,0.1,2.9-1.3c2.6-2.6,6.5-1.5,9.4-0.4
		c0.8,0.3,1.8-0.1,2.3,0.5c-0.8,1.6-2.8,0.2-3.9,0.7c-1,0.9-1.5,0.3-2.7,0.3c-0.3-0.1-0.3-0.2-0.6-0.1c-0.4,0.1-0.5,0.2-0.6,0.7
		c-0.8,2.1-2.9-0.3-4.3,0.9c-0.6,0.5,0,1.1-0.3,1.7c-0.4,0.5-1.1,0.5-1.6,0.7c-0.6,0.3-1.2,1-0.9,1.7c-0.2,0.9-1.2,0.4-1.6,1.1
		c-0.4,0.5,0,1.2,0.3,1.7c0.7,1.7,2.7-0.5,3.6,1.2c0.6,0.3,1.3,0,1.6-0.2c1.4-1.9,2.2,1.4,3.6,0.1c0,0,0.9-1.2,1.3-1.8
		c0.5-1,1.6-0.3,2.4-0.4c1.1-0.7,1.3-2,1.8-3c2.5-0.5,1.6-3.5,3.4-4.7c0.4-0.3,1.6-0.7,2.2-0.8c0.8,0,1.9-0.4,2.7,0
		c0.1,0.4-0.3,0.6-0.3,0.9c-0.3,1.2-1.4,1-2.4,1.2c-0.8,0.3-2.1,0.9-2.1,2.1c1.7,1.6,4.1,2.1,6.4,2.2c0.6-0.2,0.8-0.7,0.9-1.2
		c-0.1-1.4-2-2-1.5-3.5c0.4-1.2,1.6-1.6,2.5-2.3c3-0.5,5.3-1.7,8.6-1.7c0.5,0.2,0.4,0.4,0.2,0.6c-1.4,1.6-3.1,2.4-4.7,3.5
		c-0.1,0.1-0.4,0.6-0.4,0.6l-0.2,0.9c0,0-0.3,0.5-0.4,0.5c-0.8,0.3-1.8,0.4-2.5,1.1c-0.5,0.3-0.3,0.7-0.2,1.1c1,1.6-1.3,1.3-1.8,2.3
		c-0.6,0.9,0.5,1.2,0.8,1.8c0.1,1-1.1,1.5-0.9,2.4c0.3,0.4,0.8,0.8,1.2,1c0,0.2,0,1.2-0.2,2.1c0,0.1,0,0.4,0.1,0.5
		c0.5,0.4,1,0.7,1.6,0.6c0.7,0,1-0.8,1.5-1.3l1.5,0.1c0.3-0.1,1.2-0.2,1-1.1c0.2-0.9,1-1.3,1.9-1c1.7-0.6,0.6-2.4,0.9-3.6
		c0.1-0.5,0.6-0.6,1-0.6c0.7-1.6-1.8-3.3,0-4.7c0.3-0.8-0.2-1.4-0.3-2.1c-0.2-0.2,0.1-0.6-0.2-0.8c-0.2-0.7,0.6-1.6,0.9-2
		c0.8-1,1.8-1,3-1.3c1.7,0.2,3.3,0.9,4.3,2.3c0.3,0.7,0.6,1.4,0.7,2c0,1.5,0,3.9,0,5.5c0,1,0,3.3,0,4.2c0,1.2-0.2,2.4-0.9,3.1
		c-0.6,0.4-1.2,0.7-1.9,0.6c-3.9-0.7-7.9,0-11.2,1.9c-0.8,0.5-1.7,0.8-2.5,1.3c-1.4,0.7-2.8-0.2-4-0.9c-0.8-0.8-1.1-1.9-1.7-2.8
		c-1.1-0.2-1.9-1.1-2.1-2.1c-0.4-0.5-0.6-1.4-1.5-1c-1.4,1.4-2.5-1.1-4-1.1c-0.8-0.1-0.8,0.9-1.4,1.2c-1,0.1-1.9-0.5-2.8-0.4
		c-0.6,0.2-0.5,0.8-0.7,1.2c-0.5,0.2-1.3,0.3-2,0.2c-0.9-0.1-1.1,1.2-1.1,1.2c-0.3,2.1,2.4,0.9,2.4,2.8c0.4,1.1,1.5,0.6,2.4,0.8
		c0.7,0.4,0.3,1.3,0.9,1.8c0.4,0.1,0.8,0.2,1.2,0c0.6-0.1,1.5-0.8,2-0.2c1.1,2.4,2.5-0.3,4.1-0.1c0.7,0.9,1.6,0,2.3-0.1
		c0.5-0.2,1.8,0.1,1.9,0.1c0.4,0.1,0.8,0.4,0.9,0.9c-1.2,0.9-2.7,1.4-4.2,1.7c-3.5,1.2-7.4,1.3-10.9,0.1c0-0.1-0.3-0.1-0.3-0.1
		c-1.4-0.9-3.2-1.5-4-3.2c-0.3-0.9-0.4-1.9-0.8-2.8c-0.4-0.5-1-0.1-1.5-0.3c-0.4-0.8-0.4-1.8-0.6-2.6c-0.5-0.3-0.6-1.3-1.5-1.1
		c-2.9,1.6-0.8-2.5-2.7-3c-0.4-0.3-1-0.2-1.3,0.3c-1.3,0.8-1.7-0.9-2.4-1.4c-0.7-0.4-1.1,0.7-1.7,0.9c-0.7,0-1.2-0.5-1.6-1
		c-1.1-1.1-1.6,0.6-2.4,0.9c-0.1,1.1,0.9,1.7,1,2.8c-0.2,0.2-0.6,0.5-0.6,0.9c0.2,0.9,1.1,1.6,1.7,2.1c0.5,0.9-1,1.1-0.8,1.9
		c0.7,1.6,2.6,1,3.8,1.7c0.4,0.4,0.3,0.9,0.1,1.3c1.1,2.3,3.9,0.3,5.7,1.4c-0.1,0.5,0.5,0.6,0.8,0.9c3.2-0.4,6.3,0.3,8.7,2.2l0,0.7
		c-0.7,0.3-1.7,0.4-2.5,0.3c-0.9-0.3-1.4-0.9-2.3-1c-1.2,1.1-2.2-0.2-3.3-0.6c-1.1-0.6-1.6,0.7-2.3,1.1c-0.6,0.2-1.2-0.2-1.8-0.4
		c-0.6-0.2-1.2,0.1-1.5,0.6c0.2,1.6-1.6,1.1-2.5,1.7c0.1,1.6-1.6,1.1-2.4,1.8C26,99.7,26,100,26,100.1c0.3,0.6-0.1,1.2,0.3,1.8
		c0.4,0.4,1.1,0.2,1.6,0.4c0.8,1.5,2.4,1,3.7,1c0.8-0.1,0.6,0.9,1.2,1c0.9,0,1.5-0.3,2.2-0.9c0.7-0.7,1.5,0.3,2.2,0.2
		c1,0.2,1.6-0.8,2.1-1.5c0.4-0.3,0.8-0.1,1.2,0.1c1.6-0.5,2.6-2.2,3-3.7c0.9-0.9,1.7-1.2,2.9-1.4c1.6-0.5,3.2,0.5,4.8,0.6
		c0.6-0.2,1.5-0.3,2,0.1c-0.5,1.7-2.7,1.6-4.2,1.7c-0.8,0.1-0.6,1-1.1,1.4c-0.7,0.3-1.4,0.7-2.1,0.3c-1-0.1-1.9,0.5-2.5,1.2
		c0,0.4,0,0.8,0.3,1.1c0.2,1.3-1.3,1.3-2,2c-0.3,0.4-0.4,1,0.1,1.3c0.1,0.8-0.6,1.2-1.1,1.6c0,0.3,0,0.6,0.2,0.8
		c0.6,0.7-0.2,1.3-0.7,1.8c-0.3,0.6,0.7,1.3,0.9,1.4c0.4-0.2,0.7-0.2,1-0.5c0.6-0.4,0.8,0.5,1.7,0.3c0.5-0.1,0.6-1,0.8-1.2
		c0.4-0.3,1.2,0.2,1.6,0.1c0.8-0.2,1.4-0.7,1.5-1.6c0.3-1.2,1.8-0.7,2.6-0.8c1-0.8,1.2-2.2,1.2-3.5c0-0.8,0.9-0.7,1.5-0.7
		c0.6-0.2,0.8-0.8,0.8-1.4c0.4-1.3,0.1-2.9,0.8-4.2c0.1,0,0.2-0.2,0.2-0.2c0.4-0.7,1.1-1.3,1.9-1.5c0.9-0.1,2-0.9,2.9-0.3
		c0.2,0.1-0.1,1.9-0.5,2.5c-1.3-0.1-2.6,0.7-3.2,2c-0.2,0.7-0.3,1.3-0.1,1.4c1.3,0.5,6.2,1.2,7.1,0.5c0.5-1.7-0.9-2.7-1.8-3.7
		L61,99.2c0.1-3.6,3.9-5,6.7-6.2c0,0,0.4-0.1,0.5-0.2c1.1-0.3,2.5-1.3,3.5-0.6c0.1,0.2,0.2,0.5,0,0.8c-0.1,0.1-0.3,0.5-0.4,0.6
		c-0.5,1.4-2.1,1.9-3.4,2.4c0,0-0.3,0.6-0.1,1.2c-0.3,1.2-1.6,1-2.3,1.6c0.7,0.8-0.5,0.7-0.2,1.3c1,1.3-1.7,2.4-0.8,3.8
		c0.9,0.5,0.9,1.7,0.7,2.6c0.7,0.4,0.9,1.2,0.7,1.9c0.1,0.7,0.9,0.6,1.4,0.7c0.7,0,0.8-0.6,0.8-1.2c0.1-0.4,0.6-0.5,1-0.5
		c0.3-0.1,0.6-0.5,0.6-0.8c0.3-0.8,0.8-1.1,1.6-1.3c1.2-1-0.4-2.4,0.4-3.4c2.6-0.8-1-2.8,0.6-4.2c0.5-0.8-0.5-1.3-0.6-2.1
		c-0.3-0.9,0.1-1.7,0.8-2.3c0.8-1.1,1.9-0.9,3.1-1c2.8,0.6,2.8,3,2.8,5.4c0,1.2,0,4.3-0.1,5.8c-0.1,3.1-0.4,8.3-0.8,11.6
		c-0.2,1.2-1,2.1-1.7,3.1c-2.7,3.1-6.7,2-10.3,2c-1.9,0.3-3.1,1.5-4.7,2.4c-0.3,0.3-0.4,0.3-0.8,0.4c-1.3,0.3-2.9,0.7-4.2,0.6
		c-0.6-0.1-1.1-0.2-1.7-0.3c-0.2,0-1.3-0.5-1.7-0.6c-2.2-0.8-5.4-1.1-7-0.8c-1.5,0.5-3.2,0.8-4.3,2.1c-0.1,0.2-0.1,0.6,0.2,0.7
		c0.3,0,0.6-0.1,0.8-0.1c0.2,0,0.9-0.3,1.2-0.3c0.8-0.1,1.8-0.2,1.8-0.2l0.9-0.1c3.3-0.9,5.2,2.7,8.4,2.5c1,0,1.8,0.1,2.3,0.5
		c0.5,1.1-0.6,2-1.4,2.6c-1.4,0.4-3.3,0.7-4.6-0.3c-0.2-0.1-0.8-0.6-1-0.7c-1.2-0.3-2.5,0.1-3.4,0.7c0.1,0.1,0.1,0.4,0.2,0.4
		c2-0.5,3.3,1.2,4.7,2.1c2.3,0.8,4.9,0.5,7-0.8c2-2,3.7-5.1,6.7-5.7c0.5-0.2,1-0.2,1.5-0.3c0.2,0,1.1,0,1.3,0
		c1.4,0.3,2.7,0.6,4.2,0.6c0.8-0.1,1.7-0.5,2.4,0c-1.4,3.7-6.1,3.1-9.2,3.3c-2.7,0.7-2.4,4-4.7,5.1c-1,1-2.7,0.9-3.9,1.6v0.3
		c0.6,0.5,1.1,0.2,1.8,0.5c1.4-0.1,3.5,0.3,4.7-0.8c0.2-0.2,0.9-1.1,1.1-1.3c0.7-1,1.1-2.3,2.4-2.2c0.7,0.7,0.8,1.8,0.3,2.5
		c-0.9,1.9,0,4.2,1.1,5.8c0.6,0.4,1.1,1.3,1.8,0.8c-1.6-2.9-0.4-6.4,1.6-8.7c0.5-0.3,2.5-0.4,2.5-0.4c2.8-1.2,5-3.3,7-5.6l0.6-0.1
		c0.6,0.6,0.5,1.5,0.7,2.3c0.1,0.9-0.7,1.5-1.1,2.3c-0.4,0.2-1,0.8-1,0.8c-0.9,0.6-1.7,1.6-2.2,2.5c-0.2,0.3-0.3,1.4-0.3,1.6
		c0,2.8-2.7,4.4-4.9,5.6c0,0.2-0.1,0.3,0.1,0.5c1.7,0.5,3.4-0.5,5-1.1c0,0,0.7-0.5,1-0.6c1-0.9,1.2-2.3,1.6-3.6
		c0.3-0.6,0.7-1.5,2.2-1.7c0.4,0.2,0.6,0.6,0.7,1.1c0.4,2,0.4,2.3,0.7,3.9c0.2,1,0,1.9,0.7,2.5c0.6,0.6,0.5,1.2,1.3,1
		c1.5-1,1.4-2.9,1.8-4.3c0-0.4,0.6-3,0.6-3.8c0.1-0.6,0.8-0.6,1.2-0.5c2.5,1.5,1.1,5.7,4.4,6.3l0.3,0.1c1.4,0.1,2.7,0.7,4.3,0.6
		c0.1-0.1,0.3-0.2,0.2-0.5c-1-1.1-2.4-1-3.4-2.1c-2.4-1.8-0.4-5.9-3.5-7.1c-0.7-0.8-2.3-1.5-2.4-2.7c0-0.2,0-1.2,0-1.5
		c0-0.2,0.1-0.5,0.1-0.7c0.1-0.5,0.4-1.3,1.1-1c1.6,2.5,4,4.5,6.8,5.4c1.4,0.3,2.9,0,3.8,1.6c0.4,0.4,0.5,1,0.6,1.3
		c0.2,0.4,0.4,0.8,0.6,1.3c0.6,1.7,0.1,3.6-0.9,5c0.1,0.2,0.3,0.4,0.5,0.3c2.2-0.8,3.2-3.1,3.3-5.1c-0.1-1.6-1.4-2.5-1.2-4.1
		c1.9-0.6,2.9,1.4,4,2.7c1.1,1.8,3.5,1.3,5.4,1.3c0.5-0.2,1.4,0,1.7-0.6l-0.4-0.4c-0.5-0.2-1.5-0.4-1.5-0.4
		c-1.2-0.3-2.5-0.7-3.4-1.8c-0.5-0.7-0.8-1.5-1.2-2.2c-0.5-1-1.4-1.8-2.5-1.8c-2.8-0.9-6.4,0.5-8.4-2.2c-0.1-0.3-0.9-0.7-0.2-1
		c1.8-0.1,3.6,0.1,5.2-0.5c0,0,1.1-0.2,2-0.3c0.3,0,1.3,0.1,1.5,0.2c2.5,0.9,5.1,2.4,6.2,5c1.3,1.6,3.3,1.3,5,1.4
		c0.8,0.2,0.8,0.1,1.2,0.1c2.6,0.4,3.3-3.4,6-2.5c0.1-0.1,0.4-0.1,0.3-0.3c-0.3-0.2-0.6-0.6-1-0.7c-0.2-0.1-0.8-0.3-1-0.3
		c-1.3-0.4-2.4,1.1-3.6,1.5c-1.6,0.5-3.3-0.3-4.5-1.3c-0.3-0.5-0.7-1.1-0.1-1.5c1.2-0.1,2.4-0.2,3.5-0.5c1.7-0.2,2.7-2.1,4.3-2.4
		c0.2,0,1.6-0.1,2-0.1c1.2,0,2.4,0.3,3.5,0.4c0.6,0,1.2,0.9,1.7,0.1c-0.2-0.9-1.3-1.6-2.1-2c-2-0.9-4.4-1.4-6.7-0.9
		c-0.4,0.1-2.2,0.9-3.3,1.5c-0.2,0.1-0.9,0.5-1.7,0.6c-2.9,0.7-5-0.7-7.3-1.9c-0.4-0.2-1.2-0.6-1.2-0.6l-1.7-0.4
		c-1.1-0.4-2.3-0.2-3.4,0c-0.5,0.1-2,0.1-2.3,0.2c-0.8,0.1-1.6-0.1-2.4-0.4c-0.3,0-0.4-0.2-0.7-0.4c-1.2-1-2.5-2.2-3-3.6
		c-0.3-1.1-0.5-2-0.6-2.9c-0.1-0.5-0.1-2.7-0.1-4.2c0-4.9-0.8-9.6,0.3-14.4c0,0,0.3-1.3,1.8-2c0.7-0.5,1.5-0.2,1.5-0.2
		c1,0.2,1.9,0.8,2.5,1.7c0.6,1.4-0.6,2.5-0.8,3.6c2.1,1.4-0.9,2.4-0.4,4c0.3,0.4,0.7,0.7,1.2,0.8c0.4,0.4,0.2,1,0.2,1.5
		c0,0-0.5,0.8-0.1,1.2c0.1,0.6,0.8,0.6,1.2,0.7c1,0.2,0.3,1.4,1.2,1.8c1.7-0.4,0.9,2.6,2.9,1.6c0.7,0,0.7-0.8,0.5-1.3
		c0-0.7,0.6-1.1,1.1-1.5c0.1-0.6-0.1-1-0.4-1.4c0-0.4,0.3-0.8,0.8-0.8c0.4-0.1,0.7-0.6,0.7-0.9c0-0.9-0.9-1.5-1.6-2.1
		c-0.2-0.6,0.3-1,0.6-1.4c-0.4-1.6-2.2-1.9-3.2-2.8c0,0,0.2-0.3,0.1-0.3c0.1-1.6-1.8-1.2-2.5-2.3c-0.4-0.7-1.2-1.4-0.8-2.2
		c1-0.1,1.6,0.1,2.4,0.4c1.5,0.9,3.3,1.3,4.7,2.3c0.4,0.3,1.4,0.9,1.4,0.9c0.3,0.4,0.8,0.7,0.8,1.2c0.5,0.6,0.9,1.5,1.3,2.2
		c-1.3,0.9-2.5,2.4-2.3,3.9c0.1,0.2,0.2,0.5,0.3,0.6c0.2,0.1,0.5,0,0.7,0.1c2.1-0.1,3.9-0.6,5.7-1.5c0.2-0.1,0.5-0.3,0.5-0.5
		c0.1-0.2-0.2-0.4-0.2-0.6c-0.2-0.2-0.2-0.4-0.4-0.6c-0.7-0.8-1.7-1.6-2.9-1.6c-0.7-0.5-0.6-1.3-0.7-2c0.6-0.7,1.2-0.1,1.9,0.1
		c0.2,0.1,1,0.2,1.2,0.3c1.3,0.6,2.5,1.7,2.6,3.2c0.5,1.1-0.3,2.8,0.7,3.7c1.9,0.1,1,1.6,1.5,2.7c0.1,0.2,0.2,0.9,0.2,0.9l0.3,0.8
		c0.5,0.2,0.6,0.2,1.2,0.2c0.5-0.2,0.9-0.5,1.5-0.4c1.1,0.4,0.9,1.8,1.7,2.6c0.7,0.3,1.1-0.5,1.8-0.6c0.7,0.1,0.9,0.7,1.3,1.2
		c0.1,0.1,0.3,0.2,0.4,0.2c0.3-0.1,0.7-0.1,0.9-0.4c0.5-0.2,0.9,0,1.3,0.3c0.8,0.4,1-0.7,1.6-0.9c0.1-0.6-0.7-0.7-0.9-1.1
		c-0.3-0.5,0.1-1,0.1-1.5c-0.1-0.6-0.7-0.8-1.1-1.2c-0.1-0.5-0.1-0.9,0.2-1.2c0.1-1.2-1.4-1.1-2-1.8c-0.1-0.6,0.2-1.1,0.3-1.6
		c-0.4-0.4-0.7-1.1-1.3-1.2c-1.2-0.5-2.6,0.1-3.6-0.7c-0.4-2.2-2.8-0.9-4.1-1.6c-0.2-0.1-0.8-0.6-0.8-0.6c-0.1-0.2-0.3-0.6,0-0.8
		c1.8,0,3.7-0.3,5.4-0.9c2.6,0,4.2,2.1,5.1,4.3c0.6,0.9,1.6,0.4,2.5,0.4c0,0,1,0.2,1.3,1.2l0,0.3c0.1,0.4,1,0.5,1.6,0.6
		c0.1,0,0.3-0.2,0.4-0.3c1.1-1.3,2.3,0.6,3.5,0.5c0.5,0.1,0.7-0.5,0.8-0.9c1-0.6,1.8,0,2.8,0.1c0.3-0.1,0.7-0.3,0.7-0.6
		c0.2-0.6,0.8-0.9,1.5-0.9c1.4-0.1,0.6-1.3,1.1-2.1c-0.3-0.9-1.4-0.4-2-0.9c0-1.7-1.7-0.9-2.7-1.5c-0.3-0.4-0.1-1.1-0.6-1.4
		c-0.8-0.3-1.6,0-2.5,0.1c-0.5,0-0.6-0.5-1-0.8c-0.9-0.8-2.6,0.1-2.5,0.2c-0.5,0.5-1.3,0.8-2,0.6c-1.6-1.2-2.9,1.3-4.7,0.7
		c-0.3-0.1-0.7-0.3-0.5-0.8c0.8-0.6,1.7-1,2.5-1.7c0,0,2.2-1.2,5.9-0.8c0.7-0.3,0.8-1,1.5-1.5c1.7-0.2,3.9,0.8,5.2-0.9
		c-1.1-2.9,2.7-1.3,3.7-3c0.4-0.8-0.4-0.9-0.6-1.5c-0.6-1.4,1.3-1.4,1.7-2.5c0.4-0.4-0.1-0.8-0.4-1.1c-0.6-0.8,0.1-1.6,0.4-2.3
		c0.4-0.9-0.9-1.1-1.2-1.8c-0.8-0.3-1.2,0.5-1.8,0.9c-1.1,0.6-1.4-0.6-2.4-0.6c-0.3,0.1-0.8,0.3-0.8,0.8c-0.6,1.9-2-0.4-3,0.3
		c-0.9,0.6-0.8,1.8-0.9,2.9c-0.5,1.3-1.7-0.3-2.5,0.5c-1,1.1-0.2,2.4-0.9,3.6c-0.4,0.2-1,0.3-1.5,0.2c-1,0.3-0.6,1.5-1,2.3
		c-0.5,1.7-2.1,2.6-3.5,3.5c0,0-0.3,0.2-0.5,0.3c-1.1,0.4-2.2,0.8-3.4,0.9c0,0-2.1,0.4-3.5,0.3c-0.9,0-2.3-0.2-3.1-0.4
		c-1.7-0.5-3.4-1.1-5-1.9c-0.2-0.2-0.5-0.3-0.4-0.6c1.2-1.2,2.9-0.3,4.5-0.1c1.5-1.5,2.8,1.4,4.4,0.3c0.7-1.7,2.4-0.2,3.5-0.4
		c0.7-0.2,0.6-0.9,0.7-1.5c0.5-0.9,1.5-0.1,2.2-0.7c0.5-0.3,0.2-0.9,0.4-1.2c0.2-0.8,1.1-0.4,1.6-0.7c1-0.4,0.1-1.5,0.4-2.2
		c-0.7-1.2-2.9,0.3-3.1-1.5c-1-1.2-2,0.4-3.2,0.2c-0.2-0.2-0.4-0.4-0.4-0.7c-0.9-1.6-2.4-0.5-3.1,0.3c-0.3,0.4-0.5,0.7-0.6,0.7
		c-0.5,0.3-1-0.5-1.6-0.5c-1.7,0.5-1.2,2.5-2.6,3.3c-1.8,0.2-1.2,2.2-2.5,3c-1.1,0.4-2.3,1.2-3.5,0.8c-2.7-1.5-5.5-3-8.5-3.5
		c-2.3-0.5-4.3,0.4-6.3,0.2c-1.3-0.4-1.4-1.9-1.7-3c0-3-0.5-8.2-0.3-9.8c0.1-0.8,0.3-1.6,0.7-2.4c0.9-1.7,3-2.2,4.5-2.3
		c3.6,1.3,3.3,4.2,3.2,5.1c-0.5,0.6,0.3,1.1,0.4,1.5c0.1,0.2,0.2,0.3,0.2,0.3c0,1.2-1.2,1.9-1,3.2c0.3,0.4,0.6,0.7,1.1,0.6
		c1.9,1-1,2.9,0.7,3.9c0.4,0.1,0.7,0.4,1.1,0.1c0.5-0.1,0.9,0.1,1.2,0.5c-0.1,0.8,0.6,1.5,1,1.8c0.2,0.1,0.5,0.1,0.5,0.1
		c1-0.3,1.5,0.6,2.3,1.2c0.1,0.1,0.5,0.1,0.6,0.1c0.5-0.2,1.1-0.4,1.4-0.9c0-0.3,0.3-0.8-0.1-0.9c-1.1-1.5,1.2-1.6,1.3-2.8
		c-0.4-0.7-1.2-1.2-1.3-2c-0.1-0.8,1-0.5,1-1.3c-0.1-1.2-1.3-1.6-2.1-2.1c-0.4-0.6,0.3-0.9,0.3-1.5c-0.5-0.9-1.5-1.2-2.4-1.4
		c-0.5-0.3-1.4-0.8-0.9-1.6c-0.5-1.2-1.9-0.7-2.8-1.4c-0.8-0.6-2.1-1.3-2.3-2.4c-0.1-0.8,1-0.6,1.4-0.6c1.3,0.4,2.6,0.4,3.8,0.8
		c0.4,0.1,1.9,0.4,2.2,0.5c0.8,0.1,1.6,0.5,2.3,0.8c0.7,0.8,1.8,1.4,1.5,2.5c-0.8,0.8-1.8,1.9-1.5,3.3c0.3,1.3,0.9,1,1.6,0.8
		c1.6-0.7,3.9-0.9,5.2-2.2c0.6-0.5-1.1-2-1.1-2c-0.8-0.9-2.1,0-2.9-0.9c-0.3-0.4-0.5-0.8-0.4-1.2c0.1,0,0.2-0.2,0.2-0.2
		c1.8,0.8,4.3-0.2,5.3,2c0.2,0.2,0.5,1.7,0.6,2.3c0.2,0.2,0.4,0.6,0.9,0.6c1.6,0.2,1.2,2.1,1.9,3.1c0.4,0.3,0.9,0.6,1.5,0.7
		c2-1.4,1.7,1.7,3.3,2.1c0.7,0.2,1.5,0.1,1.8-0.6c1-0.6,1.6,0.5,2.4,0.7c0.7,0.2,0.9-0.4,1.4-0.6c0.5-0.1,1.2-0.4,1.5,0.3
		c1.2-0.3,1.3-1.2,1.6-1.7c0.5-1.6-2-1.3-1.9-2.6c0-0.1,0.2-0.5-0.1-0.8c-0.4-0.4-0.9-0.5-1.5-0.6c-0.9-0.3-0.4-1.1-0.6-1.7
		c-0.5-0.9-1.4-0.8-2.2-0.9c-0.4,0.3-1,0.3-1.5,0.4c-0.6-0.2-1-0.7-1.3-1.3c-0.8-0.4-1.9,0.1-2.9,0.3c-1-0.9-2.3-0.8-3.6-0.6
		c-0.5,0.2-0.7-0.2-0.9-0.5v-0.2c0.6-0.6,1.6-0.2,2.2-0.5C120.9,70.3,121.7,70.1,121.7,70.1 M130.6,68.3c0.4,0,1.4,0.2,2.1-0.1
		c0.2-0.1,0.3-0.3,0.4-0.5l0.3,0c-0.2,0.5,0.3,0.6,0.8,0.8c0.8,0.3,1.4,0.4,2-0.3c0.2-0.2,0.3,0,0.3,0c-0.1,0.3-0.4,0.4-0.4,0.7
		c0,0.2,2,0.8,2.9,1c0.2,0.1,0.6,0.2,1,0.2c0.3-0.2,0.4-0.3,0.7-0.2c0,0,0,0.1-0.1,0.1c0,0.1-0.3,0.2-0.2,0.3
		c0.2,0.4,1.1,0.6,0.5,0.9c-0.5,0.1-0.6-0.5-1-0.6c-0.9-0.3-1.8-0.5-2.8-0.6c0,0,0,0.7-0.2,0.6c-0.1-0.1,0.1-0.6-0.4-0.9
		c-1.3-0.5-2.8-0.9-4-0.8c-0.3,0.1,0,0.3,0.3,0.6c0.4,0.1,0.5,0.8,0.7,1c-0.5,0.1-0.5-0.4-0.9-0.6c-0.3-0.1-0.4-0.6-0.8-0.8
		c-0.4-0.3-1-0.5-1.1-0.6C130.6,68.3,130.5,68.3,130.6,68.3 M129.2,61.2l0.1-0.5c0.4,0.7,0.6,0.7,1.2-0.3c0.2-0.6,0.8-1.2,0.5-1.8
		c-0.4-0.5-0.6-1.1-0.7-1.8c0.1-0.1,0.1-0.3,0.3-0.2c0.2,0.4,0.5,1.1,0.9,1.5c0.3,0.1,0.2-0.5,0.3-0.6c0.4-0.5,0.5-1.7,0.8-2.7
		c-0.5-1.2-0.8-1.9-1.5-3.1c0.1,0,0.2-0.2,0.3-0.1c0.5,0.4,0.9,1.9,1.3,2c0.1,0,0.2-0.4,0.2-0.6c0.3-1.3,0.1-2.6,0.5-3.7l0.3-0.2
		c0.2,1.2-0.4,2.3-0.2,3.5c0.7,0,1.2-0.3,1.7-0.5c-0.2,0.2,0,0.6-0.5,0.7c-0.2,0-1,0.5-1,0.5c-0.7,0.6-0.6,2.3-0.6,2.6
		c-0.1,0.4-0.6,1.1-0.5,1.8c0.9,0,1.5-0.9,2.3-1c-0.5,0.8-1.4,1.2-2.2,1.7c-0.8,0.5-1.2,1.2-1.6,2.2c0.4,0.2,0.6,0,1,0.1
		c-0.1,0.4-0.6,0.6-1,0.7c-1,0.3-1.3,1.2-2,1.8l-0.4-0.1C128.8,62.2,129.9,61.9,129.2,61.2 M121,58c0.3,0.5,1.2,0.1,1,0.9l0.5,0.4
		c-0.4,0.4-1.1,0.7-1.7,1C120.9,59.6,120.9,58.7,121,58 M116.5,64.3c0.2-0.4,0-0.7,0.1-1.2c0.1,0,0.1,0,0.2,0
		c0.2,0.1,0.1,0.5,0.4,0.6c0.6-0.2,1.2-0.5,1.4-1.1l0-2l0.2,0c-0.1,0.4,0.1,1,0.3,1.4c0.3,0.1,0.7-0.2,0.9-0.5c0.1-0.2,0.2-1,0.3-1
		c0.1-0.1,0,0.6,0.2,0.9l1-0.2c-0.8,0.5-2.1,0.9-2.6,1.9c0,0.3,0.3,0.4,0.4,0.5l-0.8,0c-1,0.2-1.4,0.8-2.2,1.5c0,0-0.3,0.4-0.5,0
		C115.6,64.7,116.2,64.3,116.5,64.3 M105.8,50.9c0.5,0.2,0.8,0.1,1.4,0.1c0.6-0.3,0.9-1.1,1.5-1.3c0.1,0.1,0.3,0.3,0.2,0.4
		c-0.3,0.3-1,0.8-0.8,1.1c0.8,0.5,1,0.4,1.8,0.5c0.8-0.6,2.2-1.5,3-2c0.2,0.1,0.6,0.2,0.4,0.4c-0.7,0.6-1.5,0.6-1.9,1.4
		c0,0-0.3,0.3,0.2,0.3c1.3-0.1,2.6,0.1,3.6-0.2c0.6-0.3,1.1-1.2,1.4-1.1c0.1,0.2-0.7,0.9-0.5,1.2c0.2,0.2,0.8-0.1,1-0.2
		c0.6-0.2,1-0.2,1.3-0.3c0.6-0.2,1-0.3,1.7-0.5v0.2c-0.4,0.2-1,0.5-1.7,0.7c-0.7,0.1-1.3,0.2-1.6,0.4c-0.1,0.1,0.2,0.3,0.2,0.5
		c0,0.1-0.2,0-0.2,0.1c-0.2-0.2-0.4-0.4-0.7-0.5c-0.6-0.1-1.4,0.1-2.2,0.2c-0.7,0.1-1.4,0.1-2,0.1c-0.4,0,0.4,0.3,0.4,0.8
		c-0.1,0.1-0.3,0.1-0.6-0.1l-1.2-0.7c-0.7,0.1-1.1-0.2-1.8,0c0.2,0.6,0.5,1.3,0.6,1.8c-0.1,0-0.1,0-0.2,0c-0.5-0.4-0.7-1.4-1.2-1.9
		c-0.8-0.7-1.9-0.9-2.9-1C105.2,50.9,105.3,51,105.8,50.9 M106.5,45.2c0.3-0.4,1-0.6,1.2-1.3c-0.1-0.3,0-1.1-0.1-1.3
		c0.1-0.4-0.1-0.7,0.2-1.1l0.2-0.2c0.2,0.8,0.1,0.9,0.2,1.7c0,0.3,0,0.9,0.3,0.8c0.7-0.3,1.3-0.9,2-1.4c-0.1-1.6,0.4-2.9,1.1-4.5
		c0.1-0.5,0.3-0.8,0.4-1.2c0,0,0.3-0.3,0.3,0c-0.4,1.5-0.9,2.8-1.1,4.1c-0.1,0.4-0.2,0.7,0.2,0.9c0.9-0.4,1.7-1.1,2.6-2.1
		c0-0.5,0.2-1,0.4-1.5c0.1,0,0.1,0.1,0.1,0.2c0.2,0.2-0.2,0.7,0,0.8c0.5-0.5,1.1-1,1.6-1.5c0.7-0.6,1.3-1.3,2-1.9
		c0.2-0.1,0.4-0.1,0.6-0.3c0,0,0.7-0.3,0.4,0.3c-0.5,0.7-1.3,0.9-2,1.7c-0.2,0.2-0.7,0.8-0.9,1.1c-0.2,0.2,0.9,0.1,1.3,0.2
		c0.1,0,0,0.1,0,0.2c-0.6,0-1.3-0.1-1.8,0.1c-0.5,0.5-0.9,0.6-1.4,1.1c-0.3,0.3-0.7,0.5-1,1c-0.3,0.3,2.1,0.4,3,0.8l0,0.2
		c-1,0.1-1.9-0.1-3.1-0.4c-1.2,0.5-2.2,1.5-3.3,2.1c-0.3,0.2,1.4,0.2,1.8,0.4c0.1,0.1-0.2,0.4-0.2,0.4c-0.9-0.1-1.9-0.4-2.5-0.2
		c-0.8,0.2-1.2,0.8-2.2,1.1C106.7,45.3,106.5,45.3,106.5,45.2 M97.4,37.1c0.1,0.1,0.2,0.1,0.3,0.2c0.5,0.8,0.9,1.6,1.8,2.3
		c0.6,0,0.7-2.1,0.6-3c-0.7-0.4-0.8-1.2-1.2-1.7c-0.7-0.8-0.9-1.4-1.1-2.4c0.7,0.2,0.8,1.1,1.2,1.7c0.4,0.5,0.7,1.3,1.3,1.7
		c0.6-0.4,0.3-1.2,0.7-1.8c-0.2-0.4,0-1.1-0.2-1.5c-0.4-0.7-1.2-1.4-1-2.2c0.4-0.1,0.9,1.4,1.2,1.6c0.2,0.1,0.2-0.7,0.3-1.3
		c0.1,0.1,0.2-0.1,0.2,0c0.1,0.3-0.1,1.5,0,1.8c0.1,0.2,0.2-0.1,0.7-0.2c0.3-0.3,0.4-0.4,0.7-0.5c0.1,1.3-1.6,0.7-1.6,2
		c0.3,0.2-0.1,0.9-0.1,1.1c0,0.6-0.7,1.7-0.4,2.4c1-0.4,2.1-1.6,3.1-1.9c-0.2,0.7-1,1.1-1.5,1.6c-0.7,0.3-1.3,0.7-1.8,1.2
		c0,0.4-0.5,1.4-0.4,1.8c0,0.4,0.3,0.4,0.6,0.2c0.6-0.1,1.1-0.7,1.8-0.8l0,0.4c-0.9,0.8-2.2,0.9-2.8,1.9c-0.4,0.7-0.4,1.9-1.3,2.1
		l0.1-0.6c0.4-0.3,0.2-1,0.4-1.4C100.4,39.6,96.8,39.2,97.4,37.1 M63.8,45c-1.4-0.4-1.9-1.5-3.1-2c-1.2,0.4-2.6,0.3-3.9,0.2
		c-0.2,0-0.5,0.1-0.8,0l0-0.2c0.9-0.2,1.7-0.3,2.7-0.2c0.2-0.1,0.7,0,0.9-0.5c-0.5-0.8-1-0.9-1.9-1.5c-0.3-0.3-3.2-0.2-4.4-0.6
		c0.1-0.3,0.5-0.1,0.7-0.2c0.7,0.1,1.8,0.3,2.5-0.2c0.4-0.3-1.9-2-2.9-2.8c0,0-0.6-0.3,0.1-0.2c1.4,0.5,2.4,1.8,3.6,2.6
		c0,0,1,1.2,1.4,0.4c0-1.1-0.3-1.9-0.3-2.9c0.5,0.4,0.6,1,0.6,1.7c0,0.8,0.3,1.5,0.4,2.3c0.6,0.8,2.2,2,2.4,1.7
		c0.6-0.7-0.2-1.7,0.2-2.5c0.3,0.2,0.3,0.9,0.4,1.4c0,0.9-0.1,1.8,0.8,2.5c0.4,0.3,0.8,0.6,1.3,0.9C64.1,45.1,64,45.1,63.8,45
		 M66.8,51.5c-1.2,0.5-3.1,0.4-3.5,2.1c0-0.1-0.2,0-0.2-0.2c-0.1-0.3,0.3-0.8-0.4-0.9c-1,0-1.7,0.4-2.5,1c0,0-1,0.9-2.5,1.8
		c-0.2,0.3-0.6,0.4-0.7,0.4c-0.1,0.1-0.1-0.2-0.3-0.2c0.8-0.7,1.4-1.1,2.3-1.8c0.4-0.4,0.6-0.4,0.9-0.7c-0.1-0.4-0.4-0.4-1.2-0.2
		c0,0-1.9,0-1.9,0l-0.4,0C56,53.6,55.1,54,54,54c0-0.1-0.1-0.1,0-0.2c0.3-0.3,1.5-0.2,1.6-0.8c-0.7-0.5-1.8-0.8-2.6-0.9
		c-0.5-0.2-0.8-0.4-1.4-0.5c0.1,0-0.8,0-0.9-0.3c0.2-0.3,0.7-0.3,0.9-0.2c0,0,1.9,0.6,3.1,1.1l0.7,0.2c-0.1,0.1,1.9,0.3,3,0.2
		c0.6-0.2-0.6-1.2-0.4-1.2c0.1,0.1,0.1-0.1,0.2,0c1.2,1.2,1.8,1.4,2.5,1.1c0.3-0.1,0.6-0.1,0.7-0.3c0.2-0.5-0.7-0.8-0.7-1.3
		c0.1,0,0.2-0.1,0.3,0c1,0.5,1.9,2,3.1,0.9c-0.1-0.6-1-0.9-1.3-1.3c-0.1-0.1,0.1,0,0.1-0.1c1.2,0.1,1.4,1.8,3.3,1
		C67.1,50.9,66.8,51.5,66.8,51.5 M72.4,41.6c0.3,0.5,0.4,1.5,0.4,2c0,0.2,0.1,0.2-0.1,0.2c-0.3,0.1-0.2-0.6-0.5-0.9
		c-0.2-0.3-0.8-0.4-0.8-0.4c-0.1-0.1-0.2-0.2-0.2-0.3c0.2-0.1,0.6,0.3,0.8,0.1c-0.1-1.4-1-2.5-1.2-3.8c-1.4-0.8-2.8-1.6-3.8-3.1
		c-0.1-0.3,0.2-0.7,0.5-0.5c0.7,0.9,1.3,1.9,2.4,2.3c0.8-0.7,0.2-1.4,0.4-2.5c-0.3-0.8-0.8-1-1.5-1.1c-0.3-0.3-0.4-0.6-0.5-1
		c0.6-0.1,1,1.2,1.5,0.4c0.2-1-0.4-1.9-0.4-2.8c-0.3-0.6,0-1.4-0.3-2.2c0.5,0.2,0.6,1,0.9,1.5c0.1,1.4,0.8,2.6,0.7,4
		c0,0,0,1.1,0.3,0.3c0.5-0.3,1.1-1.4,1.1-1.4l0.4,0c-0.1,1.7-2,1.6-1.5,4.8c0.1,0.5,0.1,0.8,0.4,1.3c0.2,0.2,0.5,0.6,0.8,0.2
		c0.5-0.5,0.5-1.5,1.3-1.7C73.6,38.8,71.9,39.3,72.4,41.6 M55.2,65.6c-0.6-0.2-1.2-1.3-1.7-1.5c-1.1,0-2.1,0.1-3.2,0l0-0.4
		c0.8-0.2,2.6-0.1,2.4-0.3c-0.3-0.5-0.8-1-1.1-1.4c-0.1-0.1-1,0.2-1.4,0.2c-0.1,0,0.2-0.4,0.1-0.4c0.2-0.1,0.7-0.1,1-0.2
		c0-0.2-1.1-1.4-1.6-1.9c-0.5-0.2-1,0-1.5-0.4c0-0.1,0.1-0.4,0.2-0.4c0.3,0.1,0.9,0.1,1.3,0.3c0.6,0.5,1.1,1.1,1.7,1.6
		c0.2-0.9,0-1.6,0.3-2.3c0.1-0.1,0.1,0,0.2,0c0,1,0.1,2,0,2.9c0,0.4,0.3,0.4,0.7,0.9c0.3,0.4,1,1.4,1.4,1.5c0.1,0,0-0.3,0-0.6
		c0-0.4-0.2-0.6-0.1-1c0,0.1,0.3,0.1,0.4,0.1c0.2,0.6,0.1,1.4,0.3,2c0.2,0.3,0.4,0.7,0.7,0.9C55.4,65.4,55.3,65.6,55.2,65.6
		 M43,64.6c-0.4-0.6-0.9-1.7-1.4-2.1c-0.3-0.5-0.7-1-1.1-1.4c-0.5-0.2-1-0.2-1.4-0.4c-0.2,0-0.7-0.2-0.8-0.2v-0.3
		c0.6-0.2,1.2,0.3,2,0.3c-0.2-0.6-0.6-1.3-0.9-2c-1.6-0.1-2.6-1.5-3.5-2.3c-0.2,0,0-0.4,0-0.4c0.9,0.4,1.9,2.2,3.2,2
		c0.2-0.3-0.6-1.9-0.9-2.9c-0.4-0.7-1.5-1.2-1.7-1.9c0.1,0,0.1-0.1,0.2-0.1c0.4,0.3,0.9,0.9,1.1,0.8c0.3-0.1-0.3-2-0.2-2.4
		c0.2-0.1,0.1-0.1,0.2-0.1c0.5,0.7,0.5,2.8,0.9,3c0.4,0.1,0.6-1.3,1-1.6c0.1-0.1,0.2,0,0.3,0c-0.4,1.1-0.7,1.4-1.1,2.4
		c0,0,0.1,0.6,0.2,0.8c0.3,0.9,0.5,1.4,0.8,2.1c0.3,0.3,0.7-0.7,0.7-0.7c0,0.1,0.1,0.2,0.1,0.2c-0.1,0.5-0.4,0.7-0.5,1.2
		c0.3,0.6,0.9,2.1,1.5,2.5c0.1,0.1,0.3-0.8,0.5-0.8l0.2,0.1c0.1,0.4-0.1,1-0.1,1.5l1.1,2.4C43.4,64.8,43.1,64.7,43,64.6 M42.8,69.3
		c-1,0.2-1.9,0.1-3,0.5c-0.4,0.3-1,1.2-1.2,1.7l-0.4,0c0.1-0.3,0.8-1.1,0.8-1.5c-0.3-0.4-0.8,0.2-1.3,0.3c-0.3,0.1-0.6,0.1-1.1,0.2
		c-0.9,1-1.7,1.9-2.9,2.7c-0.2,0.2-0.6,0.7-0.8,0.9c0,0.1-0.2,0.3-0.3,0c0.1-0.4,0.5-0.8,0.7-1.1c0.6-0.6,1.2-1,1.9-1.7
		c0.1-0.2,0.7-0.4,0.4-0.7c-0.8,0.3-2,0.4-2.8,0.7c-0.9,0.4-1.6,1.4-2,2.2c-0.3,0.2-0.3,0.3-0.6,0.1c0.6-1.1,1.5-1.7,1.3-2
		c-0.3-0.3-3.7,1.1-5.1,1.3c-0.1,0-0.2-0.1,0.1-0.3c0.3-0.3,2.5-1,2.8-1.2c1.4-0.3,3.4-0.4,3.8-0.9c0.1-0.3-0.2-0.3-0.4-0.4
		l-2.4-0.5v-0.2l0.9,0.1l1.7,0.3c0.5,0.2,1,0.6,1.5,0.4c1.1-0.1,2.9-0.4,3.1-0.7c-0.1-0.5-2.4-0.9-3.3-1.1l0.2-0.2
		c1.3,0.5,2.7,0.4,3.9,1.1c1.1,0,2.6-0.4,3.5-0.4l2.1,0C43.8,69.6,43.2,69.2,42.8,69.3 M50.4,75.2c-0.4,0.3-0.3,0.6-0.4,1.1
		c-0.1,0.4-0.3,0.8-0.6,0.9c-0.3-0.4,0.4-1,0.1-1.4l-1.9,1.1c-0.3,1.2-0.9,1.8-1.5,2.8l-0.3,0c0.1-0.6,0.5-1.2,0.9-1.8
		c0-0.2,0.6-0.6,0.3-1c-0.4-0.2-2.3,0.8-3,1.2c-0.6,0.7-0.8,2.2-2,2.3c0-0.1,0-0.2,0-0.3c0.3-0.3,0.8-0.6,0.9-1.1
		c-0.4-0.8-1.1-0.1-1.9,0.1l-1.4,0.4c0.2-0.5,0.6-0.5,1-0.8c0.5-0.2,1-0.1,1.2-0.4c0.3-0.1-0.5-0.8-0.5-0.8c0.1-0.1,0.2-0.1,0.3-0.1
		c0.4,0.2,0.8,0.9,1.6,0.4c0.5-0.3,2-0.7,2.5-1.2c-0.6-0.8-2.2-0.6-3.1-0.9c-0.1-0.1,0-0.1-0.1-0.2c0.6-0.2,1.4,0,2.2,0.1
		c0.7,0.2,1.3,0.5,1.9,0.7c0.7,0.1,0.8,0,1.3-0.3l0.8-0.4c0,0,1.5-0.6,1.3-0.8c-0.2-0.2-0.8-0.3-1.1-0.4c-0.1-0.1,0-0.2,0-0.3
		c1.1,0.3,2.2,0.4,3.1-0.6l0.2,0C51.9,74.3,51,74.8,50.4,75.2 M68.7,75.7c0.2,0.3,0.4,1,0.3,0.8c-0.2-0.1-0.4-0.6-0.6-0.4
		c-0.4,0.6-0.5,1.1-0.8,2c0.1,0.8,0.5,1.7,0.4,2.3c-0.7,0.1-0.2-1.1-0.7-1.3c-0.3,0-0.4,0.4-0.6,0.6c0,0-0.1,0.8-0.7,1.6
		C66,81.9,66,82,66.4,82.5c0,0.1,0,0.1,0,0.2c-0.4-0.1-0.7-0.3-0.9,0.1c-0.3,0.9-0.9,2.6-1.4,3.3c-0.1,0.1-0.1-0.1-0.2,0
		c0.2-0.6,0.4-1.4,0.7-2.2c-0.2-0.3-1,0.2-1,0.2l-0.3-0.1c0.4-0.4,1-0.7,1.5-1.2c0.4-0.7,0.7-1.1,1.1-1.9c0.7-1.7,0.2-1.2-0.1-1.2
		c-1,0.2-1.7,1.7-2.3,1.2c1.1-1.5,3.8-1.6,3.8-3.9c-0.2-0.4-0.8-0.2-1.1-0.1c0,0-0.1-0.1,0-0.1c0.4-0.2,1-0.3,1.4-0.5
		c0.4-0.5,0.8-1.2,1.1-1.8c0.5-0.4,0.6-1.2,1.1-1.4C69.9,73.9,68.9,74.8,68.7,75.7 M54.6,89.5l-0.2-0.2c0.3-0.4,1.7-0.2,2.2-0.7
		c-0.9-0.3-2.2-0.8-3.2-0.9c-1.1,0.3-2.2,0.9-3,1.2c-0.4,0.2-0.3-0.2-0.3-0.2c0.9-0.4,1.8-0.7,2.6-1.3c-2.5-1.1-2.6,0-4,0.2
		c-0.3,0.1-0.2-0.2-0.2-0.2c0.2-0.2,1.1-0.3,1.1-0.8c-0.7-0.3-2.2-0.2-3.1-0.4c0.1-0.1-0.5-0.4,0-0.5c0.5-0.1,1.9,0.4,2.4,0.2
		c-0.5-0.4-0.5-0.7-0.4-0.7c0.8,0.1,1.3,0.9,2.1,1c0,0,1.3,0.4,2.1,0.5c-0.2-0.6-0.7-1.3-1.1-1.9c-0.2-0.1-0.3-0.3,0-0.6
		c0.8,0.8,1.2,2,2.1,2.8c0.6,0.2,1.5,0.6,2.2,0.7c0.8,0.4,1.7,0.5,2.1,1.2v0.2C56.7,89,55.7,89.4,54.6,89.5 M40.6,91.9
		c-0.6-0.2-1.4-0.8-2-1.1c-1.7-1.4-2.2,0.4-4.2,0l-0.1-0.2l0-0.2c0.8-0.2,1.7,0.1,2.2-0.6c-0.8-1.7-2.6-0.6-4-0.8
		c-0.9-0.1-1.6-0.3-2.7-0.6l0-0.5c1.2,0.2,2.5,0.8,3.8,0.5l0.8-0.2c-0.7-1-2.3-1.8-3.4-1.8c-1.1-0.1-2.1-0.1-3.1-0.7l-0.1-0.5
		c0.6,0.2,1.2,0.3,1.8,0.5c0.5,0.2,1.2,0.3,1.6,0.1c0-0.4-0.4-1-1.2-1.7c-1.1-1-2.8-2.1-3.5-2.8c-0.3-0.3,0.1-0.7,0.2-0.3
		c0.6,0.4,2.2,1,3.6,2.2c1.6,1.4,2.9,3.3,2.7,2.7c0.3-0.4,0.2-1,0.2-1.3c0.1,0.1,0.4-0.1,0.5,0c0.1,0.5-0.2,1.5-0.2,2
		c0.8,0.6,1.4,1.4,2.4,1.4c0.6-0.8,0.3-1.3,0.5-2c0.1,0.1,0.4,0.2,0.4,0.3c0.3,1-1,2.6,0.6,3.1c1.2,0.8,2.3,1.4,3.3,2.4
		C40.6,91.7,40.7,91.9,40.6,91.9 M42.6,98c-1.2,0.5-3.3,0.5-4,1.9c-0.4,0.3-0.6,1.3-1.1,1c0.3-0.5,1-1.5,0.8-1.6
		c-0.1-0.3-1.6-0.1-2.1,0.1c-0.6,0.6-1,1.5-1.9,1.5c0.2-0.2,0.9-0.7,0.7-0.9c0-0.4-2.3,0-3.2,0.4c-0.4,0.1-0.1,1-0.6,0.8
		c0-0.4,0.1-0.6-0.3-0.8l-1.2-0.1v-0.2c1-0.2,2.2,0.2,3.1-0.5c0.1-0.2-0.4-0.6-0.6-0.8c-0.1-0.1,0-0.2,0-0.2
		c0.1-0.1,0.5,0.3,1.1,0.6c0.7,0.3,1.7,0.5,2.4,0c0.3-0.2,0-0.2-0.3-0.3c-0.4,0,0-0.3,0-0.3c1.2,0.2,3.5,0.4,3.3-0.3
		c-0.2-0.3-0.9-0.8-0.9-0.8c-0.2-0.2-0.4-0.4-0.2-0.5c0.9,0.6,2.1,1.7,2.3,1.4c0.9-0.3,2-0.5,2.9-0.7C42.6,97.9,42.8,97.9,42.6,98
		 M50.2,103.9l-0.5,2.7c-0.5,0.1,0.1-0.9-0.3-1.5c-1.4,0.7-2.5,2-2.4,3.5l-0.2,0.3c-0.3-0.1,0.1-1.3-0.1-1.5c0-0.1-0.3,0.5-0.5,0.5
		c-0.3,0.2-0.4,0.6-1.1,0.6c-0.5,0.6-0.4,1.6-0.9,2.3l-0.2,0c-0.1-0.3,0.6-0.8,0-1.2l-1.2,0.5c0.2-0.6,1.5-0.9,1.6-1.4
		c0-0.1-0.4-0.1-0.5-0.3l-0.2-0.2c0.9,0,1.4-0.4,2.1-0.6c0,0,1.7-1.5,1.4-1.9c-0.9-0.1-2.3,0.2-3.5,0.3c-0.1-0.4,0.9-0.5,1.4-0.6
		c1.7-0.3,3.6-0.1,4.6-1.6c-0.4-0.8-2.8,0-3.4-0.1l0-0.4c0.9-0.4,2.2-0.2,3.2-0.8c1.3,0.3,2.3-1.9,3.1-2.5c0.2,0,0.4-0.2,0.5,0
		L50.2,103.9z M70.5,98.8c-0.9,0.6-0.1,1.2-0.5,2c-0.1,0.6,0.9,0.7,0.4,1.7c0,0.1-0.1,0.1-0.1,0.2c-0.2-0.1-0.4-0.7-0.7-0.7
		c-0.2,0.1-0.4,0.8-0.5,1.1c-0.1,0.4-0.3,1.2-0.3,1.6c-0.6,0.4-1,1.1-1.1,1.8c-0.8-0.3-0.1-0.8,0.2-1.3c0-0.4,0.6-0.9,0.2-1.2
		c-0.1-0.3-0.7,0.1-0.6-0.4c0.4-0.2,0.8-0.2,0.8-0.2c0.1-0.7,1.5-2.4,0.7-2.8c-0.3,0.5-0.8,0.3-0.9,0.3c0.5-0.6,1.6-1.1,1.3-2.2
		c-0.2-0.4-0.5,0.1-0.8,0.1c-0.1,0-0.2-0.1-0.4-0.2c0.5-0.4,1.8-1,2.1-1.8l0.2,0.2C70.5,97.6,70.1,98.2,70.5,98.8 M85.9,41.9
		c-0.4,0.1-0.3-0.4-0.4-0.5l-0.2-2.1c-0.6-0.8-1.7-0.6-1.8-1.6c0.6,0,1.5,1.1,1.9,0.4c0-0.4,0-1-0.1-1.5c0-0.3-0.3-0.6-0.7-0.8
		c-0.6-0.9-2.4-1.5-2-2.9c0.5,0.1,0.8,0.6,1,1.1c0.2,0.2,1.1,1,1.2,1.2c0,0.1,0.4,0.4,0.6-0.5c0-1.1,0-1.3-0.2-1.9
		c-0.7-0.8-1.9-1.3-1.6-2.5c0.7-0.1,1.8,3,1.8,0.8c0.1-1.5,0-3,0-4.6h0.3c0.6,0.8,0.3,1.4,0.3,2.5c0,0.8,0,0.7,0,1.2
		c0,0-0.1,0.4,0,0.6c0.5-0.1,1.3-1.4,2-1.6c0.2,0.3,0,0.6-0.1,0.8c-0.9,1-2.5,1.7-2,3.3c0,0-0.1,0.7,0.1,0.9
		c0.7-0.1,1.3-0.7,1.9-0.7c-0.2,0.9-1.2,0.9-1.8,1.5C85.8,35,86,35.4,85.9,36c0.1,0.6-0.1,1.4,0.6,0.9c0.2-0.3,0.6-0.7,0.9-0.7
		c0.1,0.1,0.1,0.3,0.1,0.4c-0.2,0.2-0.3,0.4-0.3,0.4c-0.4,0.2-1,0.6-1.2,1.1c0,0.8,0,1.1-0.1,1.9c0.1,0.3,0.4-0.3,0.7-0.3
		C86.9,40.5,85.7,40.9,85.9,41.9 M102.2,97.7c-0.1-0.5-0.3-1-0.6-1.5c-0.1-0.3,0.4-0.3,0.4-0.3c0.2,0.6,0.3,0.6,0.8,1.4
		c0.4,0.3,1.3,0.9,1.7,1.1c0.4,0.2,0.1,0.4,0.1,0.4c-0.6-0.1-1.5-0.9-1.8-0.5c-0.1,0.6,0.1,0.8,0.5,1.4c0.6,0.3,1.2,0.8,1.5,1.2
		c-0.1,0-0.2,0.2-0.2,0.2c-0.3-0.2-0.7-0.9-1.1-0.7c-0.6,0.7,0.2,1.6,0.5,2.3c0.2,0.7,0.7,0.3,0.9,0.4c0.1,0-0.1,0.4-0.1,0.4
		c-1.1,0-0.7,1.1-1.4,1.2c-0.1,0-0.1,0-0.2,0c0.2-0.3,0.4-0.7,0.4-1c0-0.5-0.1-0.9-0.3-1.4c-0.1-0.2-0.1-0.6-0.3-0.7
		c-0.4,0.1-0.7,0.5-0.8,0.8c0-0.1-0.3-0.2-0.2-0.3c0.2-0.4,0.8-0.9,0.9-1.4c0.1-0.3,0-0.7-0.2-1c-0.4-0.2-0.2-1.1-0.4-1
		c-0.4,0.4-0.6,0.6-0.8,0.8c0,0.2-0.2-0.1-0.2-0.1C101.6,98.8,102,98.3,102.2,97.7 M120.2,100.4c0.8,0.4,0.7,1.1,1.8,1.8
		c0,0.1,0.6-0.3,0.6-0.2l0.2,0.1c0,0.2-0.5,0.2-0.7,0.7c-0.2,0.1,0.7,1,2.2,1.9c0.3,0.1,0.9,0.1,1.2-0.1l2.1,0.1
		c-0.1,0.1,0,0.3-0.1,0.3c-0.7,0.3-2.1-0.4-2.7,0.3c0.2,0.3,1.6,1.4,3.1,2.1c0.2,0,0.5-0.2,0.7-0.2c0.2,0,0,0.2,0,0.2l-0.5,0.3
		c0,0.3,1.6,1.5,2.5,2.1c0.2,0.2,0,0.3,0,0.3c-0.7,0-1.4-1.1-2-1.3c-0.2-0.1,0,0.4-0.3,0.4c0,0-0.2,0-0.2,0c0-0.3,0.1-0.4,0-0.6
		c-0.2-0.3-0.6-0.6-0.9-0.9c-0.7-0.3-1.4-1.2-2.1-1.2c-0.1,0.3,0.1,1.4,0.1,1.6c0,0.1-0.1,0.1-0.1,0.2c-0.5-0.6-0.2-1.8-0.6-2.4
		c-0.9-0.6-2.4-2.4-2.6-2l-0.2,0.5c0,0.2-0.2-0.1-0.2-0.1c-0.2-0.1-0.2-0.5,0-1c-0.1-0.6-0.6-1.1-0.9-1.8
		C120.4,101.1,120.1,101,120.2,100.4 M131.6,97.2c0.2,0,0.4-0.4,0.6-0.2c0.1,0,0.1,0.1,0.1,0.1c0,0.2-0.1,0.3,0.3,0.4
		c0.7,0.6,1.5,0.5,2.5,0.6c0.5-0.2,0.7-0.3,1.1-0.3c0,0,0.1,0.2,0,0.2c-0.1,0.3-0.4,0.3-0.1,0.5c1.2,0.4,2.6,0.3,3.8,0.3
		c0.6-0.1,0.8-0.4,1.3-0.6c0,0,0.1,0.2,0.1,0.3c-0.1,0.2-0.5,0.5-0.4,0.6l0,0.1c0.2,0.1,2.6-0.4,2.6-0.4c0.4-0.1,0.1,0.5,0.1,0.5
		c-1.1,0.2-3,0-2.9,0.4c0.4,0.2,0.6,0.6,0.7,0.8c0,0.1-0.2,0.2-0.2,0.2c-0.5-0.3-0.9-0.9-1.4-1.3c-0.6-0.2-1.4,0-2-0.1
		c-0.5,0-1.3-0.4-1.8-0.2c-0.2,0.3,1.5,1,1.5,1.8c-0.5,0.1-0.8-0.7-1.4-1c-0.8-1.3-2.5-1.5-3.8-1.9c-0.2,0.1,0.2,0.8,0.1,0.9
		c0,0-0.4-0.2-0.4-0.3c0-0.4-0.3-1-0.4-1.1c-0.4-0.3-0.7-0.1-1.2-0.4l-0.8-0.3C130,97.1,130.9,97,131.6,97.2 M134.1,88.8
		c0.3-0.4,0.2-1.2,0.3-1.5c0,0,0.3-0.1,0.3-0.1c0.1,0.3-0.2,0.9,0.1,1.1c0.1,0,0.5-0.2,1.1-0.7c0.7-0.5,1.6-1.2,1.9-1.7
		c-0.6-1.3,0.1-2.5,0.3-3.6c0,0.1,0.3,0,0.3,0.1c0,1-0.8,2.2,0,3.2c1.1-0.3,1.8-1.6,2.7-2.3c-0.1-0.6,0.4-0.5,1-0.4
		c0,0.3,1.4,0.2,1.8,0.3c0.1,0,0,0.3,0,0.3c-1.2,0.1-1.9,0.2-2.4,0.4l-0.9,0.7l-0.7,0.7l-1.2,0.9c0,0,0,0.1-0.1,0.2
		c0,0-0.1,0-0.2,0.1c-0.6,0.5-0.7,0.8-1.2,1.1c-0.6,0.6-1.5,0.9-2,1.3c-0.1,0.1,1.1,0.1,1.6,0.2c0.1,0,0.3-0.1,0.3-0.1
		c0,0,0,0.1,0,0.1c0.2,0.2,0.5,0.2,0.9,0.3c0.2,0-0.1,0.4-0.1,0.4c-1-0.3-2.2-0.4-3.1-0.4c-0.8,0.2-1.1,0.5-1.8,0.9
		c-0.2,0.1-0.3-0.4-0.3-0.4C133.1,89.4,133.7,89.3,134.1,88.8 M115.8,88c-0.1-0.1,0.2-0.5,0.2-0.5c0.4-0.9,1-1.8,1.8-2.4
		c0.5,0.6-1.7,2.2,0.4,1.8c0.5-0.4,1.4-0.4,1.6-1.2c-0.1-0.5,0.2-0.7,0.4-1.2l0.2,0c0.2,0.6-0.5,1.4,0.3,1.7c1.3,0.1,2-1.3,3.1-1.8
		c0.6,0.5-0.9,0.9-0.1,1.4c0.7,0,1.2-0.1,2.1-0.1c0.4-0.1,1.3-0.3,1.7-0.1c-0.3,0.5-1.1,0.4-1.6,0.5c-0.7,0.3-1.6,0-2,0.7
		c0,0-0.8-0.5-1.3-0.4c-0.1,0.1-1.8,0-2.3,0.8l0.7,0.9c-0.1,0,0,0.1-0.1,0.1c-1-0.4-2.1-1.4-3.3-0.6c-0.4,0.1-0.7,0.2-1,0.6
		c0,0.4,0.6,0.5,0.8,0.7l0.1,0.3c-0.9,0-1.6-0.9-2.6-0.7C114.8,87.7,115.2,88.3,115.8,88 M102.1,73.8c0.1,0,0.1-0.1,0.2-0.1
		c0.1,0.1,0.2,0.2,0.3,0.3c0.2,0.3,0.3,0.6,0.7,0.8c0.4,0.2,1.1,0,1.4,0.2c0,0,0.1,0.3,0.1,0.3c-0.3,0-1.7-0.2-1.3,0.2
		c0.1,0.4,0.7,1.1,0.8,1.5c0.2,0.4,0.2,0.7,0.5,0.9c0.7,0.4,2.2,0.5,2.9,1.2c0.3,0.2-0.1,0.2,0,0.2c-0.7-0.1-2.1-1-2.6-0.5
		c0,0.4,1,1.9,1,1.9c0.2,0.4,0.4,1.4,0.6,1.5c0.3,0.2,0.9,0.2,1.2,0.3c0.1,0-0.1,0.3-0.1,0.4c-0.3,0-0.6-0.1-0.9,0.1
		c-0.5,0.2,0.5,0.6,0.6,0.9c0,0.1-0.2,0.3-0.2,0.3c-0.2,0-0.3-0.3-0.5-0.4c-0.4,0,0,1-0.7,0.6c0.2-0.4,0.2-0.7,0.1-1.3
		c-0.3-1.5-1.5-3.9-1.6-3.9c-0.4,0.1-0.5,0.4-0.8,0.6c0-0.1-0.2-0.2-0.2-0.2c0-0.3,0.6-0.4,0.5-0.9c-0.2-0.7-0.7-2-1.2-2.5
		c-0.4-0.1-0.7,0.8-1.1,0.6c0.1-0.4,0.8-0.9,0.7-1.4C102.5,74.7,102.2,74.1,102.1,73.8 M121.9,74c0.1,0.1,0.7-0.1,1-0.4
		c0.1,0,0.1,0.1,0.2,0c-0.3,0.2-0.8,0.5-0.3,0.9c1.2,0.3,2.4,1.6,3.5,0.6c0.4-0.2,0.4-0.1,0.5,0c-0.2,0.2-0.7,0.3-0.8,0.8
		c0.8,0.3,1.4,1,2.4,1.1c0.4,0.1,1.1,0,1.4-0.1c0,0,0.5,0.3-0.1,0.6c-0.2-0.2-0.4-0.2-0.6-0.2c-0.2,0.1-0.6,0-0.7,0.2
		c-0.1,0.1,0.1,0.5,0,0.6c-0.1,0.1-0.2,0.1-0.2,0c-0.1-0.1-0.2-0.2-0.3-0.6c-0.7-0.8-1.8-0.9-2.6-1.4c-0.3,0-0.5-0.2-0.6,0
		c0,0.2,0,0.7-0.1,0.8c-0.1,0-0.2-0.1-0.2-0.1c-0.2-0.2,0-0.8-0.1-1.1c-0.4-0.4-0.7-0.9-1.4-0.9c-0.3-0.2-1-0.9-1.4-0.8
		c-0.1,0.1,0.2,0.8,0.1,0.9c0,0-0.2,0.2-0.3,0.2c-0.4-0.7-0.6-1.7-1.1-2.3C121,73.2,121.3,73.8,121.9,74"/>
	<path class="st0" d="M91.6,150.3c0.7,0,1.3,0.6,1.3,1.3s-0.6,1.3-1.3,1.3c-0.3,0-0.9,0-1.3,0c0-0.4,0-0.8,0-1.3
		C90.4,150.8,90.9,150.3,91.6,150.3 M79.3,151.5c0-0.7,0.6-1.3,1.3-1.3c0.7,0,1.3,0.6,1.3,1.3c0,0.3,0,0.9,0,1.3c-0.4,0-0.8,0-1.3,0
		C79.9,152.8,79.3,152.2,79.3,151.5 M80.6,163.8c-0.7,0-1.3-0.6-1.3-1.3c0-0.7,0.6-1.3,1.3-1.3c0.3,0,0.9,0,1.3,0c0,0.4,0,0.8,0,1.3
		C81.9,163.3,81.3,163.8,80.6,163.8 M92.9,162.6c0,0.7-0.6,1.3-1.3,1.3c-0.7,0-1.3-0.6-1.3-1.3c0-0.3,0-0.9,0-1.3c0.4,0,0.8,0,1.3,0
		C92.3,161.3,92.9,161.9,92.9,162.6 M84.1,155.1h4v4h-4V155.1z M90.4,155l0,4h1.3c2,0,3.5,1.6,3.5,3.5c0,1.9-1.6,3.5-3.5,3.5
		c-2,0-3.5-1.6-3.5-3.5l0-1.3l-4,0v1.3c0,1.9-1.6,3.5-3.5,3.5c-1.9,0-3.5-1.6-3.5-3.5c0-2,1.6-3.5,3.5-3.5h1.3v-4h-1.2
		c-2,0-3.5-1.6-3.5-3.5c0-1.9,1.6-3.5,3.5-3.5c2,0,3.5,1.6,3.5,3.5l0,1.3l4,0v-1.3c0-2,1.6-3.5,3.5-3.5c2,0,3.5,1.6,3.5,3.5
		s-1.6,3.5-3.5,3.5L90.4,155z"/>
	<path class="st0" d="M33.2,126.7c0.4,1.6,0.4,3.2-0.6,4.6c-1.5,2.1-3.1,3.8-5.1,5c-1.7,0.7-4.2,0.6-5.9-1c-1.8-1.8-3.4-5-2.9-7.7
		c0.7-2.2,1.6-3.4,4.1-5.1c1.7-0.9,2.9-1.4,4.6-1.4c1.8,0.2,3.6,1.4,4.5,2.9C32.4,124.7,32.9,125.4,33.2,126.7 M33.9,134.7
		c-2.1,2.3-5.7,4-8.9,3.5c-1.6-0.7-5.9-0.5-8.9-8.2c-0.8-2.5,0.1-5.1,1.9-7.1c2.3-2.6,6.2-4.1,9.7-3.1c5.8,1,7.5,5.5,8.1,6.8
		C37.1,129.6,35.8,132.5,33.9,134.7 M116.8,143.8c1.6,0.1,3.2,0.6,4.2,1.9c1.6,2.1,2.7,4,3.3,6.4c0.2,1.8-0.6,4.2-2.7,5.3
		c-2.2,1.2-5.8,1.8-8.2,0.5c-1.9-1.3-2.8-2.5-3.6-5.4c-0.4-1.9-0.5-3.2,0-4.8c0.7-1.7,2.4-3,4.1-3.5
		C114.6,144,115.4,143.7,116.8,143.8 M124.7,145.5c1.6,2.7,2.2,6.7,0.7,9.5c-1.1,1.3-2.2,5.5-10.5,6.1c-2.6,0-4.9-1.5-6.2-3.9
		c-1.8-3-2.1-7.2-0.2-10.2c2.6-5.3,7.4-5.5,8.9-5.7C120.7,140.9,123.1,143,124.7,145.5 M41.3,154.5c-0.8-0.7-0.4-1,0-1.6
		c0.8-1.2,4.9-7.2,5.3-7.7c1.2-1.5,2.3-3.9,1.3-5.9c-1-1.7-2.5-2.8-4.4-2.7c-1.9,0-2.2,1.3-3.5,2.7c-2,2.4-3.2,4.1-5.5,6.8
		c0,0-1,1.1-0.1,2.3l-0.1,0.2c-0.8-0.4-3.5-2.7-3.5-3c3-3.7,6.9-7.5,9.8-11.4c0.6-0.8,0.9-1.4,0.6-2.4c0-0.1,0.1-0.1,0.2-0.2
		c0.9,0.8,2,1.8,2.4,2.6c0,0-0.3,0.5-0.4,1c1.8,0.4,3.7,0.7,5.3,1.9c1.6,1.1,2.6,2.7,2.5,4.6c-0.2,4-6.4,11-7,12
		c-0.6,0.9-0.4,1.5,0.3,2.7l-0.2,0.2C43.4,156.2,42.3,155.2,41.3,154.5 M30.2,20.5c0.9-0.6,1.1-0.1,1.5,0.4c0.9,1.1,5.5,6.7,5.9,7.2
		c1.1,1.6,3.1,3.3,5.3,2.9c1.9-0.5,3.3-1.6,3.8-3.5c0.5-1.8-0.7-2.5-1.6-4.1c-1.7-2.6-3-4.2-5-7.2c0,0-0.8-1.3-2.2-0.7l-0.1-0.2
		c0.6-0.7,3.5-2.6,3.8-2.5c2.7,3.9,5.3,8.7,8.3,12.6c0.6,0.8,1.1,1.3,2.1,1.2c0.1,0.1,0.1,0.1,0.2,0.2c-1,0.6-2.2,1.4-3.2,1.6
		c0,0-0.4-0.4-0.9-0.7c-0.9,1.6-1.7,3.3-3.3,4.6c-1.5,1.3-3.3,1.8-5.1,1.2c-3.8-1.2-8.8-9.2-9.6-10c-0.7-0.9-1.3-0.8-2.7-0.4
		l-0.1-0.2C27.9,22,29.2,21.2,30.2,20.5 M101.4,1.5c1,0.3,0.8,0.8,0.7,1.4c-0.2,1.4-1.6,8.6-1.7,9.1c-0.5,1.9-0.5,4.5,1.2,5.9
		c1.6,1.1,3.4,1.5,5.1,0.7c1.7-0.7,1.5-2.1,2.1-3.9c0.9-3,1.3-5,2.3-8.5c0,0,0.5-1.4-0.9-2.2l0-0.2c0.9,0,4.3,1,4.4,1.3
		c-1.2,4.6-3.2,9.7-4.3,14.4c-0.2,1-0.3,1.7,0.4,2.4c0,0.1-0.1,0.2-0.1,0.3c-1.1-0.4-2.5-0.8-3.3-1.4c0,0,0-0.6,0-1.1
		c-1.8,0.4-3.7,0.8-5.6,0.4c-2-0.4-3.5-1.4-4.2-3.1C96,13.3,98.8,4.4,98.9,3.2c0.2-1.1-0.3-1.5-1.4-2.4l0.1-0.2
		C98.7,0.7,100.2,1.2,101.4,1.5 M147.8,25.7c0.5,0.6,0.7,0.9,1,1.5c0.8,1.5,0.5,2.6,0,4c-0.6,1-1.4,2.4-3.3,3.1
		c-1.1,0.2-2.2,0.1-3.3-0.2c-0.4,0.1-0.4,0.3-0.6,1c-0.3,2.3-0.8,4.5-0.7,6.8c-0.1,1.5,0.3,1.8,0.5,2.6l-0.3,0.2
		c-1-1.2-3-2.6-2.9-4.4c0.2-2.9,0.8-5.5,1.3-8.3c-0.5-0.5-0.9-1-1.6-1.4c-1.6,1.5-4.2,3.6-4.1,5.2c0.1,0.3,0.4,0.7,0.6,1
		c0,0.1-0.1,0.2-0.2,0.2c-0.9-0.5-3-2.6-3.3-2.9c1.6-1.8,9-9.9,10-11.6c0.4-0.6,0.4-1.7-0.2-2.5l0.3-0.2
		C141.8,20.4,146.2,24.2,147.8,25.7 M145.3,25.2c1.1,0.8,1.7,2.2,1.4,3.5c-0.4,1.5-1.1,2-2.2,2.9c-0.8,0.5-1.4,0.6-2.9,0.1
		c-1.3-0.5-1.9-1.3-2.6-2.3c0.9-1.4,2.4-2.8,3.4-4.1C143.3,24.1,144.4,24.4,145.3,25.2 M94.6,0.5c0.1,0.4-0.7,2.5-1.4,3.7
		c0,0-0.3,0-0.3,0c0-1.2,0.3-2.2-1.1-2.5c-1-0.3-2.3-0.4-3.4,0c-0.6,0.6-0.2,10.6,0,14.9c0,0.8,1.3,1.4,1.7,1.4l0,0.3
		c-1.3-0.1-3.3-0.1-4.5-0.3c-0.4,0-0.3-0.4-0.3-0.4C85,15.3,85.1,4.6,85,3c0-0.8,0-1.4-0.5-1.5c-1.5-0.2-2.9,0.3-4.2,1
		c-0.8,0.5-1.1,1.2-1.6,2c0-0.1-0.2-0.1-0.2-0.2c0.1-0.8,0.3-1.7,0.4-2.4c0.3-0.6,0.1-1.5,0.9-1.8C84.3-0.2,93.8,0.3,94.6,0.5
		 M77.4,0.6c-0.2,1.6-0.5,2.9-0.7,4.2l-0.4,0c-0.2-0.8,0-1.1-0.7-1.8c-1.1-1-4.6-0.1-4.7,0.3c0.2,1.4,0.2,1.9,0.6,3.4
		c0.7,3.3,1.4,6.9,2.3,10.2c0.3,0.9,1.8,1.8,3,1.7l0,0.2c-1.4,0.3-3.5,0.6-4.7,0.8c-0.8,0.1-0.8-0.5-0.9-1c-0.3-2-2.9-13.8-3.1-15
		c0,0-0.5-0.1-1.1,0.2c-1.1,0.3-2.2,1-2.6,1.4c-0.8,0.7-1.3,1.8-1.6,2.9l-0.5,0.2c0.1-1.6-0.2-4.2,0.9-5.1C64.7,2.8,74,1,75.1,0.8
		C75.9,0.7,76.3,0.7,77.4,0.6 M124.4,8.8c0.9,0.6,0.5,1,0.2,1.5c-0.6,1.3-3.9,7.8-4.2,8.3c-1,1.7-1.7,4.1-0.5,6
		c1.2,1.5,2.8,2.4,4.7,2.1c1.8-0.2,2-1.6,3-3.2c1.7-2.7,2.6-4.5,4.5-7.5c0,0,0.9-1.3-0.3-2.3l0.1-0.2c0.9,0.3,3.9,2.1,3.9,2.5
		c-2.5,4.1-5.8,8.4-8.2,12.7c-0.5,0.9-0.7,1.5-0.3,2.4c0,0.1-0.1,0.1-0.1,0.2c-1-0.7-2.2-1.5-2.8-2.3c0,0,0.2-0.5,0.3-1.1
		c-1.8-0.1-3.7-0.2-5.5-1.1c-1.8-0.9-3-2.3-3.2-4.2c-0.4-4,4.8-11.8,5.2-12.9c0.5-1,0.2-1.5-0.7-2.7l0.1-0.2
		C122,7.4,123.3,8.2,124.4,8.8 M52.4,8.8c0.4,0.9,4.8,10.9,5.2,11.8c0.5,0.9,0.8,1,2.5,0.8c2.5-0.5,5.7-2.6,5.7-5.4
		c0.1-0.1,0.2-0.1,0.3-0.1c0.1,1.5,0.5,3.6,0.3,4.9c-1.3,0.6-8.1,3-9.9,3.9c-0.9-1.5-4.8-10.8-7.1-14.6C49,9.4,48,9.4,47.1,9.5
		L47,9.3c0,0,3.1-1.6,4.4-2.1C51.6,7.2,52,7.8,52.4,8.8 M23.6,26.8c0.3,0.1,0.4,2.8,0.5,3.9c0.3,2.4,0.3,3.3,0.6,5.8
		c0.3,0.6,1.1,0.9,1.8,0.9c0.2-0.1,6,0.1,10.1-0.4c0.8-0.1,1.7-0.3,2.3-0.9l0.4,0.2c-0.7,1.2-2.1,2.6-3.1,3.4
		c-0.9,0.2-7.9,0.4-11.2,0.4c-0.1,0.4-0.1,0.5-0.1,1c1.4,1,2.7,2.4,4.3,3.1c0.5,0.2,0.9,0.4,1.5,0.6c0.5,0.1,1.2-0.2,1.8-0.5
		l0.3,0.4c-0.5,0.5-2.8,3-3.4,3.4c-0.2,0-0.2,0-0.5-0.2c-2.2-1.9-10.8-7.3-12.4-8.7c-0.8-0.6-1.8-0.6-2.4-0.2L14,38.8
		c0.8-1.3,2-2.7,2.4-3.1c1.6,0.8,5.7,3.5,6.9,4.3c0.1-1-0.3-6.3-0.7-8.6c-0.3-1.1-1.2-0.9-1.8-0.7l-0.2-0.2
		C20.6,30.3,22.8,27.3,23.6,26.8 M158.1,38.7c-3.2,2.4-6.6,4.7-9.8,7c-1.3,1-2.9,2-3.5,2.7c-0.3,0.2,0,1.6,0,1.6l-0.2,0.1l-2-3.6
		c1-1.2,7.7-5.4,9.9-7c1.2-0.9,2.2-1.4,2.8-2.2c0.3-0.5,0.4-1.2,0.2-2l0.2-0.1C156.6,36.2,157.4,37.4,158.1,38.7 M15.7,55.3
		c0,0,7.2,2.5,8.3,3.2c-1.8,1.4-3.6,2.5-5.3,3.5c-1.7,1-11.7,6.2-12.5,6.7c1.3,0.5,7.6,1.8,8,1.9c1.3,0.2,2.6,0.4,3.9,0.2
		c0.9-0.2,1.8-0.7,2.3-1.9l0.3,0.2c-0.3,0.9-0.8,2.6-1.4,4c-1.7-0.1-7.2-1.4-8.4-1.6C8.5,71.2,6,70.7,3.3,70c-0.9,0-1.3,0.8-1.9,1.6
		l-0.3-0.1c0.1-0.6,0.2-1.2,0.4-1.8c0.2-0.9,0.2-1.6,0.5-2.1c0.2-0.5,4.6-2.1,9-4.7c4.1-2.5,8.1-4.4,8.3-4.6c0-0.3-5.2-2.2-6-2.4
		c-1.6-0.5-3.6-1.2-5.4-0.9c-1.1,0.2-2.1,1-2.9,2C4.8,57,4.6,57,4.7,56.8c0.1-0.3,2.1-4.3,2.1-4.3C10,53.1,12.7,54.4,15.7,55.3
		 M18.7,77.2c0.5,0.5,0.4,1.2,0.3,2.2c0,1.6,0.1,2.4,0,4.2c0,1.4,0.1,2.8-0.2,4.2c-1.4,0.5-3,0.3-4.5,0.4c-0.8-0.2-8,0.3-11.6,0.4
		c-1.3,0.1-1.9,0.8-2.3,1.7l-0.4-0.2C0,89.4,0.1,88.5,0,87.8c0.2-2.6,0-2.6,0.2-5l0.3-5.5c0,0,0-0.4,0.5-0.5
		c0.7,0.1,3.4,1.1,3.4,1.1l-0.1,0.4c-0.5-0.1-1,0-1.7,0.3c-1.1,1.1-0.9,2.2-1,4.8c0,0.7-0.2,1.8,0.3,2.3l0.9,0.2
		c2.1,0,3.2,0.3,5-0.4c-0.2-2.2,0.2-5.3,0.2-7.3c0.3-0.7,0.8-0.3,1.5,0c0.8,0.3,1.7,0.4,2.3,0.7l-0.1,0.3c-0.4,0-0.8,0-1.4,0.2
		c-0.9,0.4-1.1,4-0.6,5.9c0.1,0.5,0.6,0.4,0.6,0.4c2.2-0.1,4.2,0.2,6.2-0.2c0.2-0.2,0.6,0,0.7-0.6c0.1-3,0.6-6.8-2.4-8.6l0.1-0.3
		C16.2,76.2,17.4,76.6,18.7,77.2 M168.8,88.4c1.6,0.2,1.9-1.1,2.1-1.6c0,0.1,0.2,0,0.2,0c0.1,0.8-0.4,4.6-0.7,4.6
		c-2-0.2-4.9-0.5-7.1-0.7c0,0-1.1,7-1.4,8.8c1.8,0.5,3.6,0.6,5.4,1c1.4,0.2,1.7-0.2,2-1.2c0.1,0.1,0.3-0.1,0.3,0
		c-0.1,1.1-0.5,4.3-1,4.3c-0.2,0.1-8.8-1.9-13.2-2.4c-0.3-0.1-1.5-0.3-2.6-0.2c-0.4,0-1,0.2-1.3,0.9c-0.1,0-0.2-0.1-0.3,0
		c0.3-1.3,0.6-4,1.2-3.9c1.5,0.2,6.7,1.1,8.2,1.2c0.4-2.8,0.9-6.1,1.3-8.7c-1.1-0.1-4.1-0.5-5.5-0.7c-0.5,0-1-0.1-1.5,0
		c-0.5,0.2-0.9,0.4-1.3,1.1l-0.3,0c0.2-1.2,0.4-4,0.9-3.9C158.3,87.5,164.4,88,168.8,88.4 M19.7,93.8c0.4,1.5,0.7,2.2-0.7,2.7
		c-3.1,1.1-5.7,2-9,3.1c-1.1,0.5-1.5,0.6-3,1.2c1.8,0.5,10.4,2.1,14.2,2.9c0.2,0.1,0.4,0.4,0.2,0.6c-2.8,2.6-7.9,8.5-7.9,8.5
		c-1,1.1-1.7,1.9-2.1,3.3c1.7,0,8.8-2.1,11.2-3.1c1.7-0.5,1.9-2.3,1.7-3.8l0.4-0.1c0.2,0.3,1.5,3.7,1.6,4.6c-2.8,1.1-6,1.7-8.9,2.7
		c-1.6,0.7-5.6,1.6-7.1,2.1c-0.8,0.6-0.9,1.3-0.9,2.4l-0.3,0.1c-0.5-0.8-1.8-4.8-1.7-5.1c0.4-0.6,0.9-1.1,1.3-1.7
		c2.2-2.8,6.8-8.1,7.4-8.8c0.4-0.5,0.2-0.7-0.4-0.9c-4.5-0.9-8.7-1.5-13.4-2.3c-0.3,0-1.3-4.4-1.5-5l0.4-0.1
		c1.4,1.3,2.8,1.6,4.3,1.2c1.3-0.3,2.6-1,3.9-1.3c2.3-0.9,4.9-1.6,7.2-2.8c1-0.4,2.3-1.7,2.5-2.9l0.2,0
		C19.4,91.9,19.5,92.8,19.7,93.8 M156.1,107.9c2.2,2.3,4.3,4.2,6.6,6.5c0.6,0.6,1.7,0.3,2.2-0.8c0,0.1,0.3-0.1,0.3,0.1
		c-0.2,0.8-1.3,2.8-1.5,3.3c-0.4,0.8-3.6,0.5-5.5,0.5c-4.3-0.1-8.2-0.1-12.4,0c-1,0-1.3,0.2-1.8,0.8l-0.2-0.1c0.5-1.2,0.7-2.2,1.1-3
		c0,0,0.3-0.7,0.8-0.6c2.5,0,4.5-0.1,6.5-0.1c1.1-2,1.9-3.4,2.7-5.2c-1.8-1.9-1.9-1.9-3-2.7c-1.2-1.1-2.2,0-3,0.5l-0.4-0.2
		c0.7-1.2,1.2-2.2,2.2-3.7C152.8,104.5,154.7,106.2,156.1,107.9 M160.4,114.5c-2.6,0.1-5,0.1-6.3,0c0.4-1,1.3-2.8,2-4.3
		C156.6,110.6,159.1,112.6,160.4,114.5 M145.4,122.1c-0.1,0.1-0.2,0.2-0.3,0.3c-0.5-0.2-1-0.3-1.4-0.5c-2-0.2-3.9,1.7-4.4,3.1
		c-0.8,2.6-0.2,3,0,3.4c0.9,1.2,1.9,2,3.4,1.6c2.1-0.7,3.6-2.7,5.7-3.6c0.7-0.3,1.5-0.3,2.3-0.2c1.8,0.8,2.9,2.2,3.6,4
		c0.5,1.4,0.1,3.9-1.3,5.7c-1.1,1.7-2.7,2.7-3.9,3.8c-1-0.8-1.5-1.6-2.2-2.5c0-0.2,0.1,0,0.3-0.2c2.3,1.2,3.8-0.7,5.2-2.3
		c0.6-1,1.1-2.5,0.3-3.6c-0.8-1.1-2.1-2.2-3.6-1.9c-1.2,0.4-2.5,1.8-3.9,3c-0.5,0.4-0.7,0.5-1.3,0.7c-2.1,0.6-4.1-0.5-5.5-2.3
		c0,0-2-2.9-0.3-6c0.6-2.1,3.6-4.1,4.5-5.4C143.8,120.6,144.5,121.2,145.4,122.1 M139,145.6c1.1,0.2,1.5-0.6,2.5-1.5
		c1.3-1.1,1.3-3,1.2-4.7l0.2-0.2c0.6,1.3,1.7,2.8,1.7,4.2c-4,3.4-8.2,6.5-12.4,9.5c-0.9-1.6-1.4-3.4-1.5-4.1c0.1,0,0.2-0.2,0.3-0.1
		c0.3,0.7,1,1.3,1.7,1.3c1.4,0,2.6-0.8,3.6-1.9c0.1-1.6-1.4-2.5-2.1-3.7c-2.1-2.6-4.1-5.9-6.8-7.7c-0.6-0.5-1.3-0.2-1.9,0.1
		l-0.1-0.2l3.6-2.8c0.4-0.1,0.7,0.2,1,0.6C130.3,134.9,137.1,144,139,145.6 M167.4,73.1c-0.9,0.5-2,1.3-3.3,1.9
		c-1.2,0.6-1.9,1-3.2,1.8c-0.1-1.4-0.4-3.6-0.5-5.2C161.5,72,165.5,72.6,167.4,73.1 M156.2,69.4c0,0,7.6,1.5,11.3,2.4
		c0.7,0,1.8,0.1,2.1-0.9c0.1-0.1,0.1-0.3,0.1-0.5h0.4c0.3,1.3,0.3,2.5,0.6,3.9c0,0-2.8,1.7-4.4,2.5c-2.4,1.2-6.8,3.8-7.5,4.2
		c0,0-2.6,1.6-4,2.7c-0.3,0.3-0.3,0.5-0.3,0.8c0,0,0,0.6-0.6,0.6c-0.2-1.8-0.8-3.7,1-4.9c1.5-1,3.1-1.6,4.5-2.9
		c-0.1-1.9-0.2-4-0.3-5.6c-0.1-0.6-2.6-1-3.9-0.9c-1.2,0-1.8,1.4-2,2.4l-0.3,0c-0.2-1.4-0.3-3-0.4-3.7c0-0.4,0-0.8,0.3-1
		C154.1,68.9,154.8,69.1,156.2,69.4 M165.6,52.7c0.2,0.8,0.3,1.1,0.3,1.7c0.2,1.6-0.5,2.6-1.6,3.7c-0.9,0.7-2.3,1.7-4.2,1.5
		c-1.1-0.2-2.1-0.8-3-1.5c-0.4-0.1-0.5,0.1-1,0.7c-1.1,2-2.5,3.9-3.3,6c-0.7,1.3-0.4,1.8-0.5,2.6l-0.3,0.1c-0.4-1.5-1.7-3.6-1-5.2
		c1.3-2.6,2.9-4.7,4.4-7.1c-0.3-0.6-0.4-1.3-0.9-1.9c-2.1,0.7-5.2,1.7-5.8,3.2c0,0.3,0.1,0.8,0.2,1.2c0,0.1-0.2,0.1-0.2,0.2
		c-0.6-0.8-1.7-3.6-1.9-4c2.2-1,12.2-5.6,13.7-6.7c0.7-0.4,1-1.5,0.8-2.3l0.4-0.1C162.2,45.4,164.8,50.6,165.6,52.7 M163.5,51.3
		c0.6,1.2,0.9,2.6,0,3.7c-1,1.2-1.8,1.4-3.1,1.8c-0.9,0.1-1.7,0.2-2.8-0.9c-1-1-1.2-2.1-1.4-3.3c1.4-1,3.3-1.6,4.7-2.4
		C162.1,49.5,163,50.3,163.5,51.3 M65.5,150.7c-0.1-0.1-0.3-0.1-0.3-0.2c0-0.6,0-1,0-1.5c-0.4-2-2.8-3.2-4.3-3.3
		c-2.8,0-2.9,0.7-3.2,1c-0.8,1.2-1.3,2.5-0.5,3.7c1.3,1.8,3.7,2.6,5.1,4.3c0.5,0.5,0.8,1.4,0.9,2.2c-0.2,2-1.2,3.4-2.6,4.6
		c-1.2,0.9-3.7,1.3-5.8,0.5c-2-0.5-3.4-1.7-4.8-2.5c0.4-1.2,1-1.9,1.6-2.9c0.1-0.1,0.1,0.1,0.2,0.2c-0.5,2.5,1.9,3.4,3.8,4.2
		c1.2,0.2,2.7,0.3,3.5-0.8c0.8-1.1,1.5-2.7,0.6-4c-0.8-1-2.5-1.8-4.1-2.8c-0.5-0.4-0.7-0.5-1.1-1c-1.2-1.8-0.8-4.1,0.5-5.9
		c0,0,2.2-2.8,5.6-2.1c2.2-0.1,5,2.1,6.5,2.6C66.5,148.7,66.1,149.6,65.5,150.7"/>
</g>
</svg>
