<svg xmlns="http://www.w3.org/2000/svg" viewBox="0 0 133.85 159.01"><defs><style>.cls-1{fill:#fff;}.cls-2{fill:#f2f2f2;}.cls-3{fill:#efa400;}.cls-4{fill:#017bc4;}.cls-5{fill:gray;}.cls-6{fill:#61bf1a;}</style></defs><g id="Title_Screen" data-name="Title Screen"><g id="Elements"><path class="cls-1" d="M41.77,15.38,2.84,35.53A5.94,5.94,0,0,0,0,40.4V156.48c0,1.88,1.27,2.74,2.84,1.92l38.93-20.14a6.35,6.35,0,0,1,2.85-.61V14.78A6.49,6.49,0,0,0,41.77,15.38Z"/><path class="cls-1" d="M131,15.38,92.08,35.53a6.31,6.31,0,0,1-2.84.61V159a6.31,6.31,0,0,0,2.84-.61L131,138.26a6,6,0,0,0,2.84-4.87V17.31C133.85,15.43,132.58,14.57,131,15.38Z"/><path class="cls-2" d="M86.39,35.53,47.46,15.38a6.41,6.41,0,0,0-2.84-.6V137.65a6.28,6.28,0,0,1,2.84.61L86.39,158.4a6.35,6.35,0,0,0,2.85.61V36.14A6.35,6.35,0,0,1,86.39,35.53Z"/><g id="party"><g id="flag"><polygon class="cls-3" points="102.41 1.25 101.82 0.01 88.62 0 88.6 68.86 91.53 68.86 91.55 14.67 99.76 14.67 100.35 15.91 110.61 15.92 110.62 1.25 102.41 1.25"/></g></g><g id="head"><circle class="cls-4" cx="89.24" cy="96.68" r="5.07"/></g><g id="body"><path class="cls-5" d="M100.18,123.8l-1.3-14.86a6.08,6.08,0,0,0-.64-2.21A6.37,6.37,0,0,0,96,104.28a6.1,6.1,0,0,0-3.26-1h-7a6.12,6.12,0,0,0-2.27.44,6.32,6.32,0,0,0-2.63,2,6.13,6.13,0,0,0-1.25,3.16L78.3,123.8a1.8,1.8,0,0,0,3.59.31L83,111.43h.87l-1.25,14.28a2.41,2.41,0,0,0,0,.38l1.76,20.08a2.2,2.2,0,0,0,4.39-.19V126.1h1V146a2.2,2.2,0,0,0,4.39.19l1.75-20.08a1.21,1.21,0,0,0,0-.38l-1.24-14.28h.86l1.11,12.68a1.8,1.8,0,1,0,3.59-.31Z"/></g><g id="head-2" data-name="head"><circle class="cls-3" cx="116.55" cy="43.62" r="5.07"/></g><g id="body-2" data-name="body"><path class="cls-5" d="M127.49,70.74l-1.3-14.85a6.19,6.19,0,0,0-.64-2.22,6.37,6.37,0,0,0-2.24-2.45,6.08,6.08,0,0,0-3.26-1h-7a5.93,5.93,0,0,0-2.27.45,6.27,6.27,0,0,0-3.88,5.18l-1.3,14.85a1.8,1.8,0,0,0,3.59.31l1.11-12.67h.87l-1.25,14.27a2.41,2.41,0,0,0,0,.38l1.76,20.08a2.2,2.2,0,0,0,4.39-.19V73h1V92.92a2.2,2.2,0,0,0,4.39.19L123.17,73a1.21,1.21,0,0,0,0-.38l-1.24-14.27h.86l1.11,12.67a1.8,1.8,0,0,0,3.59-.31Z"/></g><g id="head-3" data-name="head"><circle class="cls-6" cx="28.69" cy="8.4" r="5.07"/></g><g id="body-3" data-name="body"><path class="cls-5" d="M39.62,35.52l-1.3-14.85a6,6,0,0,0-.64-2.22A6.37,6.37,0,0,0,35.44,16a6.05,6.05,0,0,0-3.26-1h-7a5.92,5.92,0,0,0-2.26.45,6.33,6.33,0,0,0-2.64,2,6.07,6.07,0,0,0-1.24,3.17l-1.3,14.85a1.8,1.8,0,0,0,3.59.32l1.11-12.68h.86L22.06,37.43a2.41,2.41,0,0,0,0,.38l1.76,20.08a2.2,2.2,0,0,0,4.39-.19V37.83h.95V57.7a2.2,2.2,0,0,0,4.39.19l1.76-20.08a2.41,2.41,0,0,0,0-.38L34.06,23.16h.87L36,35.84a1.8,1.8,0,1,0,3.58-.32Z"/></g><g id="head-4" data-name="head"><circle cx="69.14" cy="34.28" r="5"/></g><g id="body-4" data-name="body"><path d="M78.44,22.09a1.79,1.79,0,0,0-2,1.63h0l-1.3,14.84v0a2.32,2.32,0,0,1-.25.85,2.75,2.75,0,0,1-1,1.06,2.46,2.46,0,0,1-1.33.4h-7a6.1,6.1,0,0,0-2.26.44,6.35,6.35,0,0,0-2.64,2,6.07,6.07,0,0,0-1.24,3.17L58.2,61.4a1.8,1.8,0,1,0,3.59.31L62.9,49h.86L62.51,63.31a2.41,2.41,0,0,0,0,.38l1.76,20.08a2.2,2.2,0,0,0,4.39-.19V63.7h1V83.58a2.2,2.2,0,0,0,4.39.19l1.76-20.08a2.41,2.41,0,0,0,0-.38l-.86-9.83c.11-.55.25-1.13.41-1.73.53-2,1.29-4.32,2-6.54.35-1.11.67-2.21.93-3.26a22.75,22.75,0,0,0,.56-3h0v0L80.07,24A1.79,1.79,0,0,0,78.44,22.09Z"/></g><g id="head-5" data-name="head"><circle class="cls-3" cx="17.15" cy="84.86" r="5.07"/></g><g id="body-5" data-name="body"><path class="cls-5" d="M28.09,112l-1.3-14.85a6.08,6.08,0,0,0-.64-2.22,6.37,6.37,0,0,0-2.24-2.45,6.1,6.1,0,0,0-3.26-1h-7a6.12,6.12,0,0,0-2.27.44,6.32,6.32,0,0,0-2.63,2,6.16,6.16,0,0,0-1.25,3.17L6.21,112a1.8,1.8,0,1,0,3.59.31l1.11-12.68h.87l-1.25,14.28a2.41,2.41,0,0,0,0,.38l1.76,20.08a2.2,2.2,0,0,0,4.39-.19V114.28h.95v19.88a2.2,2.2,0,0,0,4.39.19l1.75-20.08a1.21,1.21,0,0,0,0-.38L22.53,99.61h.86l1.11,12.68a1.8,1.8,0,0,0,3.59-.31Z"/></g></g></g></svg>