<svg xmlns="http://www.w3.org/2000/svg" viewBox="0 0 72 72"><defs><style>.cls-1{fill:#f0f0f0;}.cls-2{opacity:0.25;}.cls-3{fill:gray;}</style></defs><g id="Avatars_for_Candidate_answer" data-name="Avatars for Candidate answer"><rect class="cls-1" width="72" height="72"/><g id="missing" class="cls-2"><circle id="head" class="cls-3" cx="35.25" cy="47.01" r="4.17"/><path id="body" class="cls-3" d="M35.25,19.31a7.94,7.94,0,0,0-7.93,7.93,2,2,0,1,0,4,0h0a4,4,0,0,1,1.15-2.78,3.94,3.94,0,0,1,5.56,0,4,4,0,0,1,1.15,2.78,3.91,3.91,0,0,1-1.62,3.17,13.89,13.89,0,0,0-2.49,2.37,9.48,9.48,0,0,0-1.23,2,6.09,6.09,0,0,0-.59,2.55V40h4V37.29a2.24,2.24,0,0,1,.23-.89,6.31,6.31,0,0,1,1.17-1.64,10.08,10.08,0,0,1,1.27-1.12,7.92,7.92,0,0,0-4.67-14.33Z"/></g></g></svg>