<?xml version="1.0" encoding="utf-8"?>
<!-- Generator: Adobe Illustrator 24.1.3, SVG Export Plug-In . SVG Version: 6.00 Build 0)  -->
<svg version="1.1" id="Layer_1" xmlns="http://www.w3.org/2000/svg" xmlns:xlink="http://www.w3.org/1999/xlink" x="0px" y="0px"
	 viewBox="0 0 37.1 37.1" style="enable-background:new 0 0 37.1 37.1;" xml:space="preserve">
<g id="Title_Screen">
	<g id="Elements">
		<path d="M35.5,0H1.7C0.8,0,0,0.8,0,1.7v33.7c0,0.9,0.8,1.7,1.7,1.7h33.7c0.9,0,1.7-0.8,1.7-1.7V1.7C37.1,0.8,36.4,0,35.5,0z
			 M15,15.3c0,0.1-1.9,8.1-2.6,10.8c-0.4,1.4-1.7,2.4-3.2,2.3c-0.9,0.1-1.8,0-2.6-0.3C6.2,28,6,27.7,6.1,27.4V27
			c0-0.3,0.2-0.6,0.5-0.7c0,0,0.1,0,0.1,0c0.2,0,0.3,0,0.5,0c0.5,0.1,1,0.1,1.6,0.1c0.8,0.1,1.6-0.4,1.7-1.2
			c0.1-0.3,0.3-1.1,0.3-1.5h-0.7C9,23.7,8.1,23,7.9,21.9l-1.8-6.4C6,15,5.9,14.6,5.9,14.1c0-0.4,0.2-0.7,0.6-0.8c0.1,0,0.1,0,0.2,0
			h0.6c0.6,0,0.7,0.5,0.8,1v0.1l1.7,6.4c0.2,0.8,0.4,1,1,1h0.4l1.7-7.4c0.2-0.8,0.4-1,0.9-1h0.6c0.4,0,0.7,0.3,0.8,0.7
			c0,0,0,0.1,0,0.1C15.1,14.6,15.1,15,15,15.3z M20,22.7c0,0.6-0.1,1-0.8,1h-0.5c-0.7,0-0.9-0.4-0.9-1V10.1h-0.4
			c-0.9,0-1.1-0.5-1.1-0.8V8.7c0-0.7,0.7-0.7,1-0.7h1.5c1,0,1.1,0.8,1.1,1.6V22.7z M29.8,19.2h-5c0.1,2.2,0.4,2.7,3.1,2.7
			c0.7,0,1.3,0,2-0.2c0.2,0,0.3-0.1,0.5-0.1c0.3,0,0.6,0.2,0.7,0.6c0,0,0,0.1,0,0.1v0.4c0,0.3-0.2,0.6-0.5,0.7c-1,0.3-2,0.5-3,0.4
			c-3.5,0-4.9-1.4-4.9-5.2s1.4-5.6,4.6-5.6c3.8,0,4.3,2.8,4.3,4.8C31.4,18.7,31,19.2,29.8,19.2z M27.2,14.8c-1.6,0-2.3,0.8-2.4,2.7
			h4.6C29.4,15.7,28.7,14.7,27.2,14.8z"/>
	</g>
</g>
</svg>
