<svg xmlns="http://www.w3.org/2000/svg" viewBox="0 0 37.14 37.14"><defs><style>.cls-1{fill:#fff;}</style></defs><g id="Title_Screen" data-name="Title Screen"><g id="Elements"><path class="cls-1" d="M35.47,0H1.74A1.74,1.74,0,0,0,0,1.72v33.7a1.76,1.76,0,0,0,1.74,1.72H35.47a1.75,1.75,0,0,0,1.67-1.72V1.72A1.73,1.73,0,0,0,35.47,0ZM15,15.34c0,.08-1.93,8.11-2.64,10.76a3.12,3.12,0,0,1-3.22,2.32,6,6,0,0,1-2.58-.3.69.69,0,0,1-.5-.73V27a.6.6,0,0,1,.65-.68c.15,0,.32,0,.53,0a12,12,0,0,0,1.55.1,1.52,1.52,0,0,0,1.72-1.24c.1-.32.26-1.15.34-1.55h-.72a2,2,0,0,1-2.2-1.73l-1.8-6.41a6.08,6.08,0,0,1-.25-1.39.7.7,0,0,1,.79-.76H7.3c.58,0,.7.47.83,1l0,.07,1.69,6.41c.21.81.44.95,1,.95h.37l1.7-7.36c.17-.77.4-1,.92-1h.6a.71.71,0,0,1,.76.76A7.37,7.37,0,0,1,15,15.34Zm5,7.36c0,.62-.14,1-.82,1h-.5c-.72,0-.86-.37-.86-1V10.1h-.37c-.93,0-1.07-.48-1.07-.76V8.67c0-.72.72-.72,1-.72h1.51c1,0,1.11.81,1.11,1.64Zm9.81-3.48h-5c.07,2.21.41,2.69,3.08,2.69a9.18,9.18,0,0,0,2-.18,2.41,2.41,0,0,1,.48-.07.61.61,0,0,1,.65.69v.38a.7.7,0,0,1-.5.74,8.43,8.43,0,0,1-3,.41c-3.55,0-4.88-1.41-4.88-5.2s1.42-5.62,4.6-5.62c3.8,0,4.27,2.78,4.27,4.84C31.41,18.7,31,19.22,29.81,19.22Zm-2.63-4.47c-1.58,0-2.3.81-2.37,2.7H29.4C29.36,15.67,28.74,14.74,27.18,14.75Z"/></g></g></svg>